<svg width="60" height="60" viewBox="0 0 60 60" fill="none" xmlns="http://www.w3.org/2000/svg">
<rect x="1.725" y="1.725" width="56.55" height="56.55" rx="6.275" fill="white"/>
<path d="M28.2313 31.7125C28.2313 35.4875 27.45 38.375 25.8875 40.375C24.325 42.375 22.0375 43.375 19.025 43.375C16.05 43.375 13.775 42.3937 12.2 40.4312C10.625 38.4687 9.81875 35.6562 9.78125 31.9937V26.9687C9.78125 23.1562 10.5688 20.2625 12.1438 18.2875C13.7313 16.3125 16.0125 15.325 18.9875 15.325C21.9625 15.325 24.2375 16.3062 25.8125 18.2687C27.3875 20.2187 28.1938 23.025 28.2313 26.6875V31.7125ZM22.8125 26.2C22.8125 23.9375 22.5 22.2937 21.875 21.2687C21.2625 20.2312 20.3 19.7125 18.9875 19.7125C17.7125 19.7125 16.7688 20.2062 16.1563 21.1937C15.5563 22.1687 15.2375 23.7 15.2 25.7875V32.425C15.2 34.65 15.5 36.3062 16.1 37.3937C16.7125 38.4687 17.6875 39.0062 19.025 39.0062C20.35 39.0062 21.3063 38.4875 21.8938 37.45C22.4813 36.4125 22.7875 34.825 22.8125 32.6875V26.2ZM45.0688 43H39.65V22.1125L33.1813 24.1187V19.7125L44.4875 15.6625H45.0688V43Z" fill="#3777DE"/>
<rect x="1.725" y="1.725" width="56.55" height="56.55" rx="6.275" stroke="#3777DE" stroke-width="3.45"/>
</svg>
