<svg width="60" height="60" viewBox="0 0 60 60" fill="none" xmlns="http://www.w3.org/2000/svg">
<rect x="1.725" y="1.725" width="56.55" height="56.55" rx="6.275" fill="white"/>
<path d="M28.2313 31.7125C28.2313 35.4875 27.45 38.375 25.8875 40.375C24.325 42.375 22.0375 43.375 19.025 43.375C16.05 43.375 13.775 42.3937 12.2 40.4312C10.625 38.4687 9.81875 35.6562 9.78125 31.9937V26.9687C9.78125 23.1562 10.5688 20.2625 12.1438 18.2875C13.7313 16.3125 16.0125 15.325 18.9875 15.325C21.9625 15.325 24.2375 16.3062 25.8125 18.2687C27.3875 20.2187 28.1938 23.025 28.2313 26.6875V31.7125ZM22.8125 26.2C22.8125 23.9375 22.5 22.2937 21.875 21.2687C21.2625 20.2312 20.3 19.7125 18.9875 19.7125C17.7125 19.7125 16.7688 20.2062 16.1563 21.1937C15.5563 22.1687 15.2375 23.7 15.2 25.7875V32.425C15.2 34.65 15.5 36.3062 16.1 37.3937C16.7125 38.4687 17.6875 39.0062 19.025 39.0062C20.35 39.0062 21.3063 38.4875 21.8938 37.45C22.4813 36.4125 22.7875 34.825 22.8125 32.6875V26.2ZM46.6063 15.4187V19.8812H46.0813C43.6313 19.9187 41.6563 20.5562 40.1563 21.7937C38.6688 23.0312 37.775 24.75 37.475 26.95C38.925 25.475 40.7563 24.7375 42.9688 24.7375C45.3438 24.7375 47.2313 25.5875 48.6313 27.2875C50.0313 28.9875 50.7313 31.225 50.7313 34C50.7313 35.775 50.3438 37.3812 49.5688 38.8187C48.8063 40.2562 47.7188 41.375 46.3063 42.175C44.9063 42.975 43.3188 43.375 41.5438 43.375C38.6688 43.375 36.3438 42.375 34.5688 40.375C32.8063 38.375 31.925 35.7062 31.925 32.3687V30.4187C31.925 27.4562 32.4813 24.8437 33.5938 22.5812C34.7188 20.3062 36.325 18.55 38.4125 17.3125C40.5125 16.0625 42.9438 15.4312 45.7063 15.4187H46.6063ZM41.3188 29.0875C40.4438 29.0875 39.65 29.3187 38.9375 29.7812C38.225 30.2312 37.7 30.8312 37.3625 31.5812V33.2312C37.3625 35.0437 37.7188 36.4625 38.4313 37.4875C39.1438 38.5 40.1438 39.0062 41.4313 39.0062C42.5938 39.0062 43.5313 38.55 44.2438 37.6375C44.9688 36.7125 45.3313 35.5187 45.3313 34.0562C45.3313 32.5687 44.9688 31.3687 44.2438 30.4562C43.5188 29.5437 42.5438 29.0875 41.3188 29.0875Z" fill="#3777DE"/>
<rect x="1.725" y="1.725" width="56.55" height="56.55" rx="6.275" stroke="#3777DE" stroke-width="3.45"/>
</svg>
