<svg width="60" height="60" viewBox="0 0 60 60" fill="none" xmlns="http://www.w3.org/2000/svg">
<rect x="1.725" y="1.725" width="56.55" height="56.55" rx="6.275" fill="white"/>
<path d="M28.2313 31.7125C28.2313 35.4875 27.45 38.375 25.8875 40.375C24.325 42.375 22.0375 43.375 19.025 43.375C16.05 43.375 13.775 42.3937 12.2 40.4312C10.625 38.4687 9.81875 35.6562 9.78125 31.9937V26.9687C9.78125 23.1562 10.5688 20.2625 12.1438 18.2875C13.7313 16.3125 16.0125 15.325 18.9875 15.325C21.9625 15.325 24.2375 16.3062 25.8125 18.2687C27.3875 20.2187 28.1938 23.025 28.2313 26.6875V31.7125ZM22.8125 26.2C22.8125 23.9375 22.5 22.2937 21.875 21.2687C21.2625 20.2312 20.3 19.7125 18.9875 19.7125C17.7125 19.7125 16.7688 20.2062 16.1563 21.1937C15.5563 22.1687 15.2375 23.7 15.2 25.7875V32.425C15.2 34.65 15.5 36.3062 16.1 37.3937C16.7125 38.4687 17.6875 39.0062 19.025 39.0062C20.35 39.0062 21.3063 38.4875 21.8938 37.45C22.4813 36.4125 22.7875 34.825 22.8125 32.6875V26.2ZM37.4188 26.95H40.3063C41.6813 26.95 42.7 26.6062 43.3625 25.9187C44.025 25.2312 44.3563 24.3187 44.3563 23.1812C44.3563 22.0812 44.025 21.225 43.3625 20.6125C42.7125 20 41.8125 19.6937 40.6625 19.6937C39.625 19.6937 38.7563 19.9812 38.0563 20.5562C37.3563 21.1187 37.0063 21.8562 37.0063 22.7687H31.5875C31.5875 21.3437 31.9688 20.0687 32.7313 18.9437C33.5063 17.8062 34.5813 16.9187 35.9563 16.2812C37.3438 15.6437 38.8688 15.325 40.5313 15.325C43.4188 15.325 45.6813 16.0187 47.3188 17.4062C48.9563 18.7812 49.775 20.6812 49.775 23.1062C49.775 24.3562 49.3938 25.5062 48.6313 26.5562C47.8688 27.6062 46.8688 28.4125 45.6313 28.975C47.1688 29.525 48.3125 30.35 49.0625 31.45C49.825 32.55 50.2063 33.85 50.2063 35.35C50.2063 37.775 49.3188 39.7187 47.5438 41.1812C45.7813 42.6437 43.4438 43.375 40.5313 43.375C37.8063 43.375 35.575 42.6562 33.8375 41.2187C32.1125 39.7812 31.25 37.8812 31.25 35.5187H36.6688C36.6688 36.5437 37.05 37.3812 37.8125 38.0312C38.5875 38.6812 39.5375 39.0062 40.6625 39.0062C41.95 39.0062 42.9563 38.6687 43.6813 37.9937C44.4188 37.3062 44.7875 36.4 44.7875 35.275C44.7875 32.55 43.2875 31.1875 40.2875 31.1875H37.4188V26.95Z" fill="#3777DE"/>
<rect x="1.725" y="1.725" width="56.55" height="56.55" rx="6.275" stroke="#3777DE" stroke-width="3.45"/>
</svg>
