<svg width="60" height="60" viewBox="0 0 60 60" fill="none" xmlns="http://www.w3.org/2000/svg">
<rect x="1.725" y="1.725" width="56.55" height="56.55" rx="6.275" fill="white"/>
<path d="M28.2313 31.7125C28.2313 35.4875 27.45 38.375 25.8875 40.375C24.325 42.375 22.0375 43.375 19.025 43.375C16.05 43.375 13.775 42.3937 12.2 40.4312C10.625 38.4687 9.81875 35.6562 9.78125 31.9937V26.9687C9.78125 23.1562 10.5688 20.2625 12.1438 18.2875C13.7313 16.3125 16.0125 15.325 18.9875 15.325C21.9625 15.325 24.2375 16.3062 25.8125 18.2687C27.3875 20.2187 28.1938 23.025 28.2313 26.6875V31.7125ZM22.8125 26.2C22.8125 23.9375 22.5 22.2937 21.875 21.2687C21.2625 20.2312 20.3 19.7125 18.9875 19.7125C17.7125 19.7125 16.7688 20.2062 16.1563 21.1937C15.5563 22.1687 15.2375 23.7 15.2 25.7875V32.425C15.2 34.65 15.5 36.3062 16.1 37.3937C16.7125 38.4687 17.6875 39.0062 19.025 39.0062C20.35 39.0062 21.3063 38.4875 21.8938 37.45C22.4813 36.4125 22.7875 34.825 22.8125 32.6875V26.2ZM50.6188 43H31.9063V39.2875L40.7375 29.875C41.95 28.55 42.8438 27.3937 43.4188 26.4062C44.0063 25.4187 44.3 24.4812 44.3 23.5937C44.3 22.3812 43.9938 21.4312 43.3813 20.7437C42.7688 20.0437 41.8938 19.6937 40.7563 19.6937C39.5313 19.6937 38.5625 20.1187 37.85 20.9687C37.15 21.8062 36.8 22.9125 36.8 24.2875H31.3625C31.3625 22.625 31.7563 21.1062 32.5438 19.7312C33.3438 18.3562 34.4688 17.2812 35.9188 16.5062C37.3688 15.7187 39.0125 15.325 40.85 15.325C43.6625 15.325 45.8438 16 47.3938 17.35C48.9563 18.7 49.7375 20.6062 49.7375 23.0687C49.7375 24.4187 49.3875 25.7937 48.6875 27.1937C47.9875 28.5937 46.7875 30.225 45.0875 32.0875L38.8813 38.6312H50.6188V43Z" fill="#3777DE"/>
<rect x="1.725" y="1.725" width="56.55" height="56.55" rx="6.275" stroke="#3777DE" stroke-width="3.45"/>
</svg>
