<svg width="60" height="60" viewBox="0 0 60 60" fill="none" xmlns="http://www.w3.org/2000/svg">
<rect x="1.725" y="1.725" width="56.55" height="56.55" rx="6.275" fill="white"/>
<path d="M28.2313 31.7125C28.2313 35.4875 27.45 38.375 25.8875 40.375C24.325 42.375 22.0375 43.375 19.025 43.375C16.05 43.375 13.775 42.3937 12.2 40.4312C10.625 38.4687 9.81875 35.6562 9.78125 31.9937V26.9687C9.78125 23.1562 10.5688 20.2625 12.1438 18.2875C13.7313 16.3125 16.0125 15.325 18.9875 15.325C21.9625 15.325 24.2375 16.3062 25.8125 18.2687C27.3875 20.2187 28.1938 23.025 28.2313 26.6875V31.7125ZM22.8125 26.2C22.8125 23.9375 22.5 22.2937 21.875 21.2687C21.2625 20.2312 20.3 19.7125 18.9875 19.7125C17.7125 19.7125 16.7688 20.2062 16.1563 21.1937C15.5563 22.1687 15.2375 23.7 15.2 25.7875V32.425C15.2 34.65 15.5 36.3062 16.1 37.3937C16.7125 38.4687 17.6875 39.0062 19.025 39.0062C20.35 39.0062 21.3063 38.4875 21.8938 37.45C22.4813 36.4125 22.7875 34.825 22.8125 32.6875V26.2ZM32.7125 29.575L34.2875 15.7H49.5875V20.2187H38.7313L38.0563 26.0875C39.3438 25.4 40.7125 25.0562 42.1625 25.0562C44.7625 25.0562 46.8 25.8625 48.275 27.475C49.75 29.0875 50.4875 31.3437 50.4875 34.2437C50.4875 36.0062 50.1125 37.5875 49.3625 38.9875C48.625 40.375 47.5625 41.4562 46.175 42.2312C44.7875 42.9937 43.15 43.375 41.2625 43.375C39.6125 43.375 38.0813 43.0438 36.6688 42.3812C35.2563 41.7062 34.1375 40.7625 33.3125 39.55C32.5 38.3375 32.0688 36.9562 32.0188 35.4062H37.3813C37.4938 36.5437 37.8875 37.4312 38.5625 38.0687C39.25 38.6937 40.1438 39.0062 41.2438 39.0062C42.4688 39.0062 43.4125 38.5687 44.075 37.6937C44.7375 36.8062 45.0688 35.5562 45.0688 33.9437C45.0688 32.3937 44.6875 31.2062 43.925 30.3812C43.1625 29.5562 42.0813 29.1437 40.6813 29.1437C39.3938 29.1437 38.35 29.4812 37.55 30.1562L37.025 30.6437L32.7125 29.575Z" fill="#3777DE"/>
<rect x="1.725" y="1.725" width="56.55" height="56.55" rx="6.275" stroke="#3777DE" stroke-width="3.45"/>
</svg>
