<svg width="37" height="30" viewBox="0 0 37 30" fill="none" xmlns="http://www.w3.org/2000/svg">
<path d="M29.6218 14.9665L22.9345 21.6413L19.9155 18.6287C19.5578 18.2718 18.9764 18.2718 18.6187 18.6287C18.261 18.9856 18.261 19.5658 18.6187 19.9227L22.287 23.5831C22.4576 23.7533 22.6905 23.8503 22.9345 23.8503C23.1784 23.8503 23.4114 23.7533 23.5838 23.5831L30.9204 16.2623C31.2781 15.9054 31.2781 15.3252 30.9204 14.9683C30.5628 14.6114 29.9813 14.6096 29.6218 14.9665Z" fill="#0B1620"/>
<path d="M30.271 0.0576172H6.42688C2.88695 0.0576172 0.00732422 2.93106 0.00732422 6.46337V22.9353C0.00732422 26.4676 2.88695 29.3411 6.42688 29.3411H30.271C33.8109 29.3411 36.6905 26.4676 36.6905 22.9353V6.46337C36.6905 2.93106 33.8109 0.0576172 30.271 0.0576172ZM30.271 27.5108H6.42688C3.89941 27.5108 1.84148 25.4592 1.84148 22.9353V9.20869H34.8563V22.9353C34.8563 25.4592 32.7984 27.5108 30.271 27.5108ZM34.8563 7.37848H1.84148V6.46337C1.84148 3.9395 3.89941 1.88783 6.42688 1.88783H30.271C32.7984 1.88783 34.8563 3.9395 34.8563 6.46337V7.37848Z" fill="#EB1B28"/>
<path d="M6.42696 22.0203H4.5928C4.08657 22.0203 3.67572 22.4302 3.67572 22.9354C3.67572 23.4405 4.08657 23.8505 4.5928 23.8505H6.42696C6.93319 23.8505 7.34404 23.4405 7.34404 22.9354C7.34404 22.4302 6.93319 22.0203 6.42696 22.0203Z" fill="#EB1B28"/>
<path d="M11.9295 22.0203H10.0953C9.5891 22.0203 9.17825 22.4302 9.17825 22.9354C9.17825 23.4405 9.5891 23.8505 10.0953 23.8505H11.9295C12.4357 23.8505 12.8466 23.4405 12.8466 22.9354C12.8466 22.4302 12.4357 22.0203 11.9295 22.0203Z" fill="#EB1B28"/>
</svg>
