<svg width="35" height="35" viewBox="0 0 35 35" fill="none" xmlns="http://www.w3.org/2000/svg">
<path d="M14.7323 26.4203C14.6801 26.368 14.6182 26.3264 14.55 26.2981C14.4819 26.2697 14.4088 26.2551 14.335 26.2551C14.2613 26.2551 14.1882 26.2697 14.12 26.2981C14.0519 26.3264 13.9899 26.368 13.9378 26.4203L11.9938 28.3719C11.9273 28.4386 11.8372 28.4761 11.7432 28.4761C11.6491 28.4761 11.559 28.4386 11.4925 28.3719L6.95672 23.8183C6.89026 23.7515 6.85292 23.661 6.85292 23.5666C6.85292 23.4722 6.89026 23.3817 6.95672 23.3149L8.90064 21.3635C8.95281 21.3111 8.9942 21.2489 9.02244 21.1805C9.05067 21.112 9.06521 21.0387 9.06521 20.9646C9.06521 20.8906 9.05067 20.8172 9.02244 20.7488C8.9942 20.6803 8.95281 20.6182 8.90064 20.5658L5.01288 16.6628C4.91374 16.5632 4.78111 16.5045 4.64104 16.4981C4.50098 16.4918 4.3636 16.5382 4.25589 16.6283L2.39723 18.1835C1.70996 18.7575 1.20614 19.5218 0.948543 20.3812C0.69095 21.2405 0.690981 22.157 0.948632 23.0164L2.02488 22.6921C1.83072 22.0445 1.8307 21.3538 2.02483 20.7062C2.21896 20.0585 2.59865 19.4825 3.11658 19.05L4.58112 17.8248L7.70873 20.9646L6.88348 21.7933L4.36488 19.2648L3.57039 20.0625L6.0925 22.5945C5.84672 22.8775 5.71721 23.2437 5.73015 23.619C5.7431 23.9943 5.89754 24.3506 6.16223 24.6159L10.6979 29.1695C10.8352 29.3073 10.9981 29.4166 11.1775 29.4912C11.3568 29.5658 11.549 29.6041 11.7432 29.6041C11.9373 29.6041 12.1295 29.5658 12.3088 29.4912C12.4882 29.4166 12.6511 29.3073 12.7884 29.1695L14.335 27.6169L17.4628 30.7569L16.7125 31.6608L14.7321 29.6731L13.9377 30.4709L15.9743 32.5151C15.3442 33.1194 14.5087 33.4603 13.6374 33.4687H13.5828C13.2547 33.4667 12.9287 33.4177 12.6145 33.3231C10.374 32.6483 8.31073 31.4823 6.57383 29.9093C4.83692 28.3363 3.46973 26.3957 2.57104 24.2275L1.53356 24.661C3.13708 28.5309 6.11032 31.6683 9.88054 33.4687H5.75638C5.71071 33.4687 5.66619 33.4543 5.62914 33.4275C5.59208 33.4007 5.56437 33.3628 5.54991 33.3193L5.34337 32.6974C5.25432 32.4293 5.08351 32.1962 4.85514 32.0309C4.62676 31.8657 4.3524 31.7768 4.07091 31.7768C3.78941 31.7768 3.51505 31.8657 3.28668 32.0309C3.05831 32.1962 2.8875 32.4293 2.79844 32.6974L2.59197 33.3193C2.57751 33.3628 2.54979 33.4007 2.51272 33.4275C2.47565 33.4543 2.43112 33.4687 2.38543 33.4687H0.756137V34.5968H2.38543C2.66702 34.5971 2.94153 34.5082 3.16996 34.3429C3.39839 34.1776 3.56912 33.9443 3.6579 33.676L3.86444 33.0541C3.8789 33.0106 3.90662 32.9728 3.94368 32.946C3.98075 32.9192 4.02527 32.9047 4.07094 32.9047C4.11662 32.9047 4.16114 32.9192 4.1982 32.946C4.23526 32.9728 4.26299 33.0106 4.27745 33.0541L4.48392 33.676C4.5727 33.9443 4.74344 34.1776 4.97187 34.3429C5.20029 34.5082 5.4748 34.597 5.75638 34.5968L13.6781 34.5955C14.3338 34.5851 14.9795 34.4326 15.5711 34.1485C16.1627 33.8643 16.6861 33.4553 17.1056 32.9493L18.6544 31.0833C18.7442 30.9752 18.7904 30.8373 18.7841 30.6966C18.7777 30.556 18.7192 30.4229 18.6201 30.3233L14.7323 26.4203Z" fill="#0B1620"/>
<path d="M29.5291 5.71101C27.2478 3.42099 24.3599 1.83631 21.2082 1.14516C18.0565 0.454016 14.7734 0.685429 11.7488 1.81192C8.7242 2.93842 6.08516 4.91267 4.14507 7.50024C2.20497 10.0878 1.04533 13.18 0.803833 16.4096L1.92439 16.4928C2.23057 12.4193 4.09714 8.62336 7.13209 5.90218C10.167 3.181 14.1343 1.74631 18.2006 1.89943C22.2669 2.05255 26.1159 3.78156 28.9392 6.72334C31.7626 9.66512 33.3407 13.5908 33.342 17.6759C33.349 20.1052 32.792 22.5028 31.7151 24.6783L32.7218 25.1792C34.2828 22.0062 34.8143 18.422 34.2416 14.9301C33.669 11.4382 32.0209 8.21415 29.5291 5.71101Z" fill="#EB1B28"/>
<path d="M25.2527 31.483C25.1448 31.5434 25.0597 31.6378 25.0105 31.7516C24.9614 31.8654 24.951 31.9923 24.981 32.1126L25.2606 33.2352L20.8799 32.0357L24.0659 28.4375L24.27 29.2572C24.2915 29.3438 24.3333 29.424 24.3917 29.4912C24.4502 29.5585 24.5237 29.6108 24.6063 29.644C24.6888 29.6772 24.778 29.6902 24.8666 29.682C24.9551 29.6738 25.0405 29.6446 25.1156 29.5969C27.123 28.3294 28.7765 26.5703 29.9207 24.485C31.0648 22.3997 31.6622 20.0566 31.6566 17.6759C31.6566 9.90078 25.3557 3.5752 17.6109 3.5752C14.4519 3.57542 11.385 4.64438 8.90554 6.60952C6.42603 8.57466 4.67851 11.3213 3.94507 14.4061L5.03831 14.667C5.711 11.8564 7.29548 9.35011 9.5424 7.54257C11.8275 5.69436 14.6765 4.69179 17.6109 4.70325C24.7361 4.70325 30.5329 10.5228 30.5329 17.6759C30.538 19.7328 30.0536 21.7611 29.12 23.5921C28.1864 25.423 26.8306 27.0035 25.1655 28.2021L24.8979 27.1275C24.8731 27.0279 24.8217 26.937 24.7493 26.8646C24.6768 26.7922 24.5861 26.741 24.4868 26.7165C24.3876 26.6921 24.2835 26.6952 24.1859 26.7257C24.0883 26.7562 24.0008 26.8128 23.9329 26.8895L19.4383 31.9658C19.3748 32.0375 19.3306 32.1244 19.3098 32.2181C19.2891 32.3117 19.2925 32.4092 19.3197 32.5012C19.3469 32.5932 19.3971 32.6767 19.4655 32.7438C19.5339 32.8109 19.6181 32.8594 19.7104 32.8847L25.8905 34.5767C25.985 34.6026 26.0847 34.6032 26.1796 34.5785C26.2745 34.5537 26.3612 34.5045 26.4313 34.4356C26.5013 34.3668 26.5522 34.2808 26.5789 34.1861C26.6056 34.0914 26.6071 33.9913 26.5833 33.8958L26.1741 32.2525C28.5768 30.8257 30.5912 28.825 32.0382 26.4284L31.0771 25.844C29.6554 28.1988 27.6483 30.1421 25.2527 31.483Z" fill="#EB1B28"/>
<path d="M18.1727 5.8313H17.0491V6.95936H18.1727V5.8313Z" fill="#F1B253"/>
<path d="M12.1983 7.13617L11.2252 7.7002L11.787 8.67712L12.7602 8.11309L12.1983 7.13617Z" fill="#EB1B28"/>
<path d="M7.67422 11.2653L7.1124 12.2422L8.08551 12.8062L8.64733 11.8293L7.67422 11.2653Z" fill="#EB1B28"/>
<path d="M27.1364 22.5458L26.5746 23.5227L27.5477 24.0867L28.1095 23.1098L27.1364 22.5458Z" fill="#EB1B28"/>
<path d="M29.4092 17.1118H28.2856V18.2399H29.4092V17.1118Z" fill="#EB1B28"/>
<path d="M27.5476 11.2651L26.5745 11.8291L27.1363 12.806L28.1094 12.242L27.5476 11.2651Z" fill="#EB1B28"/>
<path d="M23.0236 7.13611L22.4617 8.11304L23.4348 8.67707L23.9967 7.70014L23.0236 7.13611Z" fill="#EB1B28"/>
<path d="M12.8273 14.3626L12.2816 15.3487L15.9492 17.3942C15.8913 17.7369 15.9399 18.0892 16.0886 18.4032C16.2373 18.7171 16.4787 18.9774 16.7801 19.1486C17.0814 19.3198 17.428 19.3936 17.7726 19.36C18.1172 19.3263 18.4432 19.1868 18.706 18.9605L25.6136 23.0271L26.182 22.0541L19.2683 17.9837C19.3138 17.7388 19.3046 17.4868 19.2415 17.2459C19.1783 17.0051 19.0628 16.7812 18.9031 16.5905L22.9412 9.66461L21.9721 9.09473L17.9361 16.0156C17.6821 15.9653 17.4199 15.9746 17.17 16.0427C16.9202 16.1109 16.6894 16.2361 16.4957 16.4086L12.8273 14.3626ZM17.6109 17.1118C17.722 17.1118 17.8307 17.1448 17.923 17.2068C18.0154 17.2688 18.0874 17.3569 18.13 17.4599C18.1725 17.563 18.1836 17.6764 18.1619 17.7858C18.1403 17.8952 18.0868 17.9957 18.0082 18.0746C17.9296 18.1535 17.8295 18.2072 17.7205 18.229C17.6115 18.2507 17.4986 18.2396 17.3959 18.1969C17.2933 18.1542 17.2055 18.0819 17.1438 17.9891C17.082 17.8964 17.0491 17.7873 17.0491 17.6758C17.0493 17.5263 17.1085 17.3829 17.2138 17.2771C17.3192 17.1714 17.462 17.1119 17.6109 17.1118Z" fill="#0B1620"/>
</svg>
