<?xml version="1.0" encoding="iso-8859-1"?>
<!-- Generator: Adobe Illustrator 19.0.0, SVG Export Plug-In . SVG Version: 6.00 Build 0)  -->
<svg version="1.1" id="Layer_1" xmlns="http://www.w3.org/2000/svg" xmlns:xlink="http://www.w3.org/1999/xlink" x="0px" y="0px"
	 viewBox="0 0 451.296 451.296" style="enable-background:new 0 0 451.296 451.296;" xml:space="preserve">
<circle style="fill:#E05B49;" cx="225.648" cy="225.638" r="225.638"/>
<path style="opacity:0.1;enable-background:new    ;" d="M447.972,264.112l-125.61-125.609v-0.001l-42.147-42.147H128.934v249.991
	v8.575l96.366,96.366c0.117,0,0.231,0.009,0.348,0.009C337.152,451.296,429.703,370.401,447.972,264.112z"/>
<rect x="128.931" y="346.368" style="fill:#D5D6DB;" width="193.428" height="8.576"/>
<polygon style="fill:#FFFFFF;" points="280.215,96.355 128.934,96.355 128.934,346.346 322.362,346.346 322.362,138.502 "/>
<polygon style="fill:#EBF0F3;" points="280.215,138.502 322.362,138.502 280.215,96.355 "/>
<rect x="146.887" y="121.037" style="fill:#44C4A1;" width="41.421" height="4.7"/>
<rect x="262" y="296.858" style="fill:#27A2DB;" width="41.421" height="4.7"/>
<rect x="276.065" y="312.013" style="fill:#EBF0F3;" width="27.372" height="4.7"/>
<rect x="191.344" y="164.091" style="fill:#E56353;" width="68.562" height="4.7"/>
<g>
	<rect x="147.855" y="185.139" style="fill:#EBF0F3;" width="155.581" height="4.7"/>
	<rect x="147.855" y="202.445" style="fill:#EBF0F3;" width="155.581" height="4.7"/>
	<rect x="147.855" y="219.786" style="fill:#EBF0F3;" width="118.682" height="4.7"/>
	<rect x="147.855" y="237.107" style="fill:#EBF0F3;" width="155.581" height="4.7"/>
	<rect x="147.855" y="254.418" style="fill:#EBF0F3;" width="155.581" height="4.7"/>
	<rect x="147.855" y="271.718" style="fill:#EBF0F3;" width="89.078" height="4.7"/>
	<rect x="146.887" y="138.588" style="fill:#EBF0F3;" width="61.076" height="4.7"/>
</g>
<g>
</g>
<g>
</g>
<g>
</g>
<g>
</g>
<g>
</g>
<g>
</g>
<g>
</g>
<g>
</g>
<g>
</g>
<g>
</g>
<g>
</g>
<g>
</g>
<g>
</g>
<g>
</g>
<g>
</g>
</svg>
