<svg width="17" height="21" viewBox="0 0 17 21" fill="none" xmlns="http://www.w3.org/2000/svg">
<path d="M8.49994 0C4.30629 0 0.894531 3.41176 0.894531 7.60536C0.894531 12.8098 7.70062 20.4501 7.9904 20.7728C8.26258 21.076 8.73779 21.0754 9.00947 20.7728C9.29925 20.4501 16.1053 12.8098 16.1053 7.60536C16.1053 3.41176 12.6935 0 8.49994 0ZM8.49994 11.4318C6.39001 11.4318 4.67351 9.71529 4.67351 7.60536C4.67351 5.49544 6.39005 3.77893 8.49994 3.77893C10.6098 3.77893 12.3263 5.49548 12.3263 7.6054C12.3263 9.71533 10.6098 11.4318 8.49994 11.4318Z" fill="#EB1B28"/>
</svg>
