<svg width="60" height="74" viewBox="0 0 60 74" fill="none" xmlns="http://www.w3.org/2000/svg">
<path d="M0.462486 58.1251H2.97312V54.3376C2.98825 48.9736 5.59866 43.9523 9.97032 40.8796L8.52893 38.8088C3.48586 42.3545 0.475827 48.149 0.462341 54.3369L0.462486 58.1251Z" fill="#008D93"/>
<path d="M53.1857 73.2752V69.4877H54.441C54.7739 69.4877 55.0933 69.3546 55.3287 69.1179C55.564 68.8812 55.6963 68.5599 55.6963 68.2252V63.1752C55.6963 62.8404 55.564 62.5191 55.3287 62.2824C55.0933 62.0457 54.7739 61.9127 54.441 61.9127H53.1857V54.3377C53.1924 50.2548 51.4059 46.3771 48.304 43.7428C52.1669 40.8621 54.4439 36.3103 54.441 31.474V17.7251C54.4511 12.3668 52.0397 7.2943 47.8864 3.9385C43.7332 0.582705 38.2883 -0.692781 33.088 0.471749C27.8903 -0.693243 22.4475 0.583345 18.2983 3.94023C14.149 7.29661 11.7427 12.3697 11.76 17.7251V20.2501C9.96614 20.2501 8.30841 21.2128 7.41132 22.7751C6.51467 24.3375 6.51467 26.2628 7.41132 27.8251C8.30854 29.3875 9.96628 30.3501 11.76 30.3501V31.474C11.76 33.2805 12.0795 35.0732 12.7026 36.7676C13.2754 38.3372 14.1048 39.7993 15.1566 41.0938C12.3579 41.9872 9.91339 43.7507 8.17445 46.1308C6.43609 48.511 5.49396 51.3843 5.48335 54.3377V61.9127H4.22803C3.53481 61.9127 2.97272 62.478 2.97272 63.1752V68.2252C2.97272 68.56 3.10497 68.8812 3.34035 69.1179C3.57572 69.3547 3.89515 69.4877 4.22803 69.4877H5.48335V73.2752H7.99397V69.4877H13.0152V73.2752H15.5259V55.6002H13.0152V61.9127H7.99397V54.3377C8.00294 51.6897 8.92817 49.1277 10.6105 47.0912C12.2933 45.0549 14.6286 43.6712 17.2154 43.1786C18.5778 44.3278 20.1306 45.2285 21.8024 45.8384V46.6753L16.2303 49.4139C15.8839 49.5841 15.6346 49.9048 15.5533 50.2835C15.4726 50.6623 15.5695 51.0574 15.8156 51.3555L21.8023 58.5822V73.2749H24.313V54.2407C25.8384 55.1312 27.5706 55.6001 29.3342 55.6001C31.0978 55.6001 32.83 55.1312 34.3555 54.2407V73.2749H36.8661V58.5822L42.8529 51.3584C43.0989 51.0603 43.1958 50.6652 43.1151 50.2859C43.0339 49.9071 42.7845 49.5864 42.4382 49.4162L37.0403 46.765H39.237C41.584 46.761 43.8973 46.2092 45.9961 45.153C48.9327 47.2801 50.6733 50.6979 50.6743 54.3377V61.9127H45.6531V55.6002H43.1424V73.2752H45.6531V69.4877H50.6743V73.2752H53.1857ZM13.0156 66.9627H5.48373V64.4377H13.0156V66.9627ZM9.24968 25.3001C9.24968 24.6306 9.5142 23.988 9.98493 23.5146C10.4557 23.0412 11.0945 22.7751 11.7603 22.7751V27.8251C11.0945 27.8251 10.4557 27.5591 9.98493 27.0857C9.5142 26.6123 9.24968 25.9697 9.24968 25.3001ZM17.319 39.7778C16.3383 38.6325 15.5727 37.3176 15.0594 35.8972C14.5382 34.4808 14.2709 32.9834 14.2709 31.4734V17.7246C14.276 13.9906 15.6495 10.3902 18.1294 7.61158C20.6098 4.83293 24.0209 3.07163 27.7118 2.66532C22.4889 5.86775 19.2995 11.5727 19.2922 17.7244V31.4733C19.2737 36.5948 21.8314 41.3793 26.09 44.189C22.6973 43.9562 19.5388 42.368 17.319 39.7776L17.319 39.7778ZM18.7698 50.9774L21.8028 49.4855V54.6375L18.7698 50.9774ZM29.3347 53.0746C27.4791 53.078 25.6893 52.3858 24.3134 51.1341V46.5096C25.1871 46.6719 26.0738 46.7564 26.9619 46.7621H31.7069C32.1715 46.7621 32.6361 46.7316 33.1018 46.6866C33.517 46.7243 33.9351 46.7508 34.3571 46.7547V51.1345V51.134C32.9813 52.3863 31.1908 53.0779 29.3347 53.0745L29.3347 53.0746ZM36.8666 54.6375V49.4855L39.8996 50.978L36.8666 54.6375ZM34.4927 44.2371C31.1269 44.2371 27.8989 42.8923 25.5194 40.4986C23.1393 38.1049 21.8022 34.8585 21.8028 31.4734V17.7246C21.8028 12.3121 24.6738 7.3106 29.3347 4.60409C33.9956 1.89816 39.7376 1.89816 44.3985 4.60409C49.0593 7.3106 51.9304 12.3121 51.9304 17.7246V31.4734C51.9298 34.8579 50.5932 38.1044 48.2132 40.4981C45.8337 42.8912 42.6057 44.2365 39.2405 44.2371H34.4927ZM45.6538 64.4371H53.1857V66.9621H45.6538V64.4371Z" fill="#008D93"/>
<path d="M55.7795 37.8458L58.1243 38.7488V38.7482C58.4757 37.8239 58.7604 36.8748 58.9756 35.9092L56.5266 35.3563C56.3378 36.2029 56.0884 37.0354 55.7796 37.8458L55.7795 37.8458Z" fill="#008D93"/>
<path d="M59.4623 31.4741V17.7253C59.4729 12.9183 57.9548 8.23403 55.1292 4.35693L53.1016 5.8438C55.6111 9.29035 56.9605 13.4531 56.9516 17.7254V31.4743C56.9516 31.9657 56.9309 32.455 56.89 32.9414L59.3933 33.1499C59.4393 32.5936 59.4622 32.0356 59.4622 31.4743L59.4623 31.4741Z" fill="#008D93"/>
<path d="M36.8666 11.4126C33.7272 11.4126 30.8265 13.0973 29.2568 15.8313C27.6872 18.566 27.6872 21.9348 29.2568 24.6688L31.4284 23.4063C30.501 21.7905 30.3317 19.8448 30.9661 18.0914C31.6005 16.3381 32.9735 14.9571 34.717 14.3187C36.4598 13.6801 38.395 13.8503 40.0016 14.7825C41.6083 15.7153 42.723 17.3149 43.0452 19.1522C43.368 20.9895 42.8659 22.8765 41.6739 24.3065C40.4819 25.7358 38.7217 26.5621 36.8667 26.5627C36.1735 26.5627 35.6114 27.128 35.6114 27.8252V32.8752H38.122V28.9981C41.0833 28.5709 43.6246 26.6574 44.8672 23.9205C46.1097 21.1837 45.8821 17.9992 44.2642 15.4692C42.6457 12.9391 39.8582 11.4105 36.8668 11.4129L36.8666 11.4126Z" fill="#008D93"/>
<path d="M35.6113 35.4001H38.1219V37.9251H35.6113V35.4001Z" fill="#008D93"/>
</svg>
