<svg width="19" height="19" viewBox="0 0 19 19" fill="none" xmlns="http://www.w3.org/2000/svg">
<path d="M14.445 12.5684C13.8242 11.9556 13.0493 11.9556 12.4325 12.5684C11.962 13.035 11.4915 13.5015 11.0289 13.976C10.9024 14.1064 10.7957 14.1341 10.6415 14.0471C10.337 13.8811 10.0128 13.7466 9.72026 13.5648C8.35623 12.7068 7.2136 11.6037 6.20145 10.3623C5.69933 9.74549 5.25256 9.08522 4.94021 8.34192C4.87696 8.19168 4.88882 8.09284 5.01138 7.97027C5.48187 7.5156 5.94051 7.04906 6.40309 6.58252C7.04755 5.93411 7.04755 5.175 6.39914 4.52264C6.03144 4.15099 5.66375 3.78724 5.29605 3.4156C4.91649 3.03604 4.54089 2.65253 4.15738 2.27693C3.53664 1.67201 2.76171 1.67201 2.14493 2.28088C1.67049 2.74742 1.21581 3.22582 0.733456 3.68445C0.286686 4.1075 0.0613238 4.62543 0.0138791 5.23035C-0.0612416 6.21483 0.179935 7.14395 0.519955 8.04935C1.21581 9.92341 2.27541 11.5879 3.56037 13.1141C5.29605 15.1779 7.3678 16.8108 9.79143 17.989C10.8827 18.5188 12.0134 18.926 13.243 18.9932C14.0891 19.0407 14.8245 18.8272 15.4136 18.1669C15.8169 17.7162 16.2716 17.305 16.6986 16.874C17.3312 16.2335 17.3351 15.4586 16.7065 14.826C15.9553 14.0709 15.2001 13.3196 14.445 12.5684Z" fill="#EB1B28"/>
<path d="M13.6899 9.4176L15.1488 9.16852C14.9195 7.82821 14.2869 6.61441 13.3262 5.64971C12.3101 4.6336 11.0251 3.9931 9.60968 3.79541L9.40408 5.26224C10.4993 5.41644 11.4956 5.91065 12.2824 6.69744C13.0257 7.44074 13.512 8.38173 13.6899 9.4176Z" fill="#EB1B28"/>
<path d="M15.9713 3.07599C14.287 1.39171 12.1559 0.328159 9.80348 0L9.59789 1.46683C11.6301 1.7515 13.4725 2.67272 14.9275 4.12373C16.3074 5.50358 17.2128 7.24717 17.5409 9.16472L18.9999 8.91564C18.6163 6.69365 17.5686 4.67725 15.9713 3.07599Z" fill="#EB1B28"/>
</svg>
