<svg width="75" height="76" viewBox="0 0 75 76" fill="none" xmlns="http://www.w3.org/2000/svg">
<path d="M75 43.073C75 39.4753 73.1093 36.3195 70.2711 34.5434C71.4383 32.9022 72.1272 30.8949 72.1272 28.7274C72.1272 25.4739 70.5777 22.5829 68.179 20.7498C68.5683 19.6298 68.7786 18.4255 68.7786 17.1736C68.7786 11.1254 63.8761 6.22185 57.8242 6.22185C56.6021 6.22185 55.4255 6.42326 54.3269 6.79418C53.2053 2.87102 49.5939 0 45.3134 0C42.0495 0 39.1794 1.6662 37.4995 4.19209C35.8197 1.66633 32.9481 0 29.6867 0C25.4041 0 21.7938 2.87155 20.6721 6.79418C19.5735 6.42326 18.3969 6.22185 17.1727 6.22185C11.1245 6.22185 6.22193 11.1259 6.22193 17.1736C6.22193 18.4255 6.43276 19.6293 6.82043 20.7498C4.4207 22.5831 2.87222 25.4739 2.87222 28.7274C2.87222 30.8949 3.56017 32.9022 4.72833 34.5434C1.88919 36.3195 0 39.4746 0 43.073C0 46.1947 1.42513 48.9873 3.66106 50.8298C3.31211 52.0546 3.12535 53.3498 3.12535 54.6866C3.12535 62.3817 9.3064 68.6339 16.9735 68.749C18.9374 72.4682 22.8444 75.0044 27.343 75.0044C31.6847 75.0044 35.475 72.6445 37.4996 69.1335C39.5226 72.6445 43.3134 75.0044 47.6573 75.0044C52.1549 75.0044 56.0618 72.4686 58.0257 68.749C65.6931 68.6345 71.8726 62.3817 71.8726 54.6866C71.8726 53.3499 71.6874 52.0546 71.3368 50.8298C73.5728 48.9873 74.999 46.1947 74.999 43.073H75ZM27.343 71.8796C22.6053 71.8796 18.7496 68.0229 18.7496 63.2852C18.7496 60.8844 19.8048 58.6432 21.3989 57.0827C21.6918 56.7986 21.8749 56.4031 21.8749 55.961C21.8749 55.0984 21.1744 54.3978 20.3117 54.3978C19.8859 54.3978 19.4993 54.572 19.2178 54.8462C16.9369 56.9838 15.6242 59.9135 15.6242 63.2847C15.6242 64.0559 15.6996 64.8112 15.8429 65.5437C13.4306 65.2507 11.1988 64.1657 9.4536 62.422C7.38655 60.3549 6.24924 57.6084 6.24924 54.686C6.24924 51.7652 7.38658 49.0187 9.4536 46.9543C11.5196 44.8873 14.2662 43.75 17.1874 43.75C18.1181 43.75 19.0311 43.8645 19.911 44.0884C20.0392 44.1204 20.1731 44.1434 20.3117 44.1434C21.1744 44.1434 21.8749 43.4429 21.8749 42.5776C21.8749 41.8175 21.3277 41.1813 20.6058 41.0443C19.5103 40.7696 18.3661 40.6231 17.1875 40.6231C11.9429 40.6231 7.36842 43.4958 4.95142 47.7527C3.81721 46.5191 3.12504 44.8759 3.12504 43.072C3.12504 40.6687 4.344 38.4693 6.38539 37.1923L7.82043 36.294C8.24367 36.0147 8.52408 35.5339 8.52408 34.9882C8.52408 34.6539 8.41997 34.3453 8.24157 34.091L7.2732 32.7303C6.43771 31.5574 5.99617 30.1736 5.99617 28.7271C5.99617 26.6868 6.88553 24.852 8.29545 23.5865C10.2855 26.3351 13.5197 28.1244 17.1729 28.1244C18.0356 28.1244 18.7496 27.4254 18.7496 26.5623C18.7496 25.6996 18.0413 25.0001 17.1781 25.0001C12.8625 25.0001 9.34692 21.4892 9.34692 17.1736C9.34692 12.8581 12.8568 9.34713 17.1723 9.34713C18.2971 9.34713 19.3665 9.58621 20.3343 10.0168C20.6638 14.8942 24.724 18.7498 29.6862 18.7498C30.5489 18.7498 31.2494 18.0509 31.2494 17.1877C31.2494 16.325 30.5489 15.6255 29.6862 15.6255C26.2406 15.6235 23.4371 12.821 23.4371 9.37431C23.4371 5.92874 26.2408 3.12469 29.6867 3.12469C33.1338 3.12469 35.9374 5.92834 35.9374 9.37431V24.9997H35.9353C35.9113 25.8409 35.2212 26.5185 34.3743 26.5185C33.5116 26.5185 32.8121 27.219 32.8121 28.0817C32.8121 28.9444 33.5111 29.6438 34.3743 29.6438C34.9225 29.6438 35.4478 29.5491 35.9375 29.376V42.1886C35.9375 44.7703 33.8339 46.8739 31.25 46.8739C30.3873 46.8739 29.6868 47.5745 29.6868 48.4371C29.6868 49.2998 30.3873 49.9982 31.25 49.9982C33.0089 49.9982 34.6317 49.417 35.9375 48.4371V63.2844C35.9375 68.0221 32.0818 71.8789 27.343 71.8789L27.343 71.8796ZM70.0473 47.7538C67.6303 43.4969 63.0575 40.6243 57.8113 40.6243C56.6347 40.6243 55.4879 40.7707 54.3939 41.0454C53.673 41.183 53.1237 41.8191 53.1237 42.5787C53.1237 43.444 53.8242 44.1445 54.6895 44.1445C54.8271 44.1445 54.9594 44.1215 55.0876 44.0896C55.9665 43.8651 56.882 43.7511 57.8112 43.7511C60.734 43.7511 63.4806 44.8884 65.5471 46.9554C67.6115 49.0198 68.7515 51.7664 68.7515 54.6871C68.7515 57.61 67.6115 60.3566 65.5471 62.4231C63.8008 64.1672 61.5691 65.2518 59.1567 65.5448C59.2985 64.8124 59.3765 64.057 59.3765 63.2858C59.3765 59.9146 58.0628 56.9849 55.7829 54.8468C55.4988 54.5721 55.1148 54.3984 54.689 54.3984C53.8237 54.3984 53.1232 55.0989 53.1232 55.9616C53.1232 56.4032 53.3063 56.7992 53.5993 57.0833C55.1949 58.6438 56.2501 60.8846 56.2501 63.2854C56.2501 68.0231 52.3961 71.8798 47.6578 71.8798C42.9174 71.8798 39.0609 68.0231 39.0609 63.2854L39.0614 48.4381C40.3682 49.4179 41.9911 49.9991 43.7489 49.9991C44.6142 49.9991 45.3146 49.3013 45.3146 48.4381C45.3146 47.5754 44.6141 46.8749 43.7489 46.8749C41.1671 46.8749 39.0614 44.7712 39.0614 42.1895V29.3769C39.551 29.5495 40.0779 29.6447 40.6271 29.6447C41.4877 29.6447 42.1882 28.9458 42.1882 28.0826C42.1882 27.2199 41.4877 26.5194 40.6271 26.5194C39.7781 26.5194 39.0891 25.8419 39.0661 25.0006H39.0614V9.37523C39.0614 5.92966 41.8676 3.12561 45.3146 3.12561C48.7591 3.12561 51.5626 5.92926 51.5626 9.37523C51.5626 12.8223 48.759 15.6249 45.3141 15.6259C44.4488 15.6259 43.7483 16.3249 43.7483 17.1881C43.7483 18.0508 44.4488 18.7502 45.3141 18.7502C50.2762 18.7502 54.3364 14.8945 54.666 10.0172C55.6317 9.5866 56.7032 9.34751 57.8243 9.34751C62.1408 9.34751 65.6523 12.8584 65.6523 17.174C65.6523 21.4896 62.1367 25.0005 57.8201 25.0005C56.9595 25.0005 56.2501 25.6994 56.2501 26.5626C56.2501 27.4253 56.9642 28.1248 57.8248 28.1248C61.478 28.1248 64.7142 26.3362 66.7055 23.5869C68.1153 24.8524 69.0037 26.6871 69.0037 28.7275C69.0037 30.174 68.5621 31.5578 67.7266 32.7307L66.7583 34.0914C66.5799 34.3457 66.4768 34.6543 66.4768 34.9886C66.4768 35.5348 66.7562 36.0151 67.1794 36.2944L68.6145 37.1927C70.6563 38.4697 71.8737 40.6696 71.8737 43.0724C71.8737 44.8768 71.1826 46.52 70.0474 47.7541L70.0473 47.7538Z" fill="#EB1B28"/>
</svg>
