<svg width="80" height="80" viewBox="0 0 80 80" fill="none" xmlns="http://www.w3.org/2000/svg">
<path d="M32.3112 55.835C31.6649 55.1888 30.6309 55.1888 29.9847 55.835C29.3385 56.4813 29.3385 57.5152 29.9847 58.1615L34.1206 62.2974C34.3791 62.5559 34.8961 62.8144 35.2839 62.8144C35.6716 62.8144 36.0593 62.6851 36.4471 62.2974C37.0933 61.6512 37.0933 60.6172 36.4471 59.9709L32.3112 55.835Z" fill="#EB1B28"/>
<path d="M40.326 47.8201C39.6798 47.1739 38.6458 47.1739 37.9995 47.8201C37.3533 48.4664 37.3533 49.5003 37.9995 50.1466L42.1355 54.2825C42.394 54.541 42.911 54.7995 43.2987 54.7995C43.6864 54.7995 44.0742 54.6703 44.4619 54.2825C45.1082 53.6363 45.1082 52.6023 44.4619 51.9561L40.326 47.8201Z" fill="#EB1B28"/>
<path d="M38.9035 54.284C38.2573 53.6378 37.2233 53.6378 36.5771 54.284C35.9308 54.9302 35.9308 55.9642 36.5771 56.6105L38.1281 58.1614C38.3866 58.4199 38.9035 58.6784 39.2913 58.6784C39.679 58.6784 40.0668 58.5492 40.4545 58.1614C41.1008 57.5152 41.1008 56.4812 40.4545 55.835L38.9035 54.284Z" fill="#EB1B28"/>
<path d="M48.3379 39.8082C47.6916 39.1619 46.6577 39.1619 46.0114 39.8082C45.3652 40.4544 45.3652 41.4884 46.0114 42.1346L50.1473 46.2705C50.4058 46.529 50.9228 46.7875 51.3106 46.7875C51.6983 46.7875 52.0861 46.6583 52.4738 46.2705C53.12 45.6243 53.12 44.5903 52.4738 43.9441L48.3379 39.8082Z" fill="#EB1B28"/>
<path d="M46.9169 46.3992C46.2707 45.753 45.2367 45.753 44.5905 46.3992C43.9442 47.0455 43.9442 48.0794 44.5905 48.7257L46.1414 50.2767C46.3999 50.5352 46.9169 50.7936 47.3047 50.7936C47.6924 50.7936 48.0801 50.6644 48.4679 50.2767C49.1141 49.6304 49.1141 48.5964 48.4679 47.9502L46.9169 46.3992Z" fill="#EB1B28"/>
<path d="M56.3527 31.9234C55.7065 31.2772 54.6725 31.2772 54.0262 31.9234C53.38 32.5696 53.38 33.6036 54.0262 34.2499L58.1622 38.3858C58.4207 38.6443 58.9377 38.9028 59.3254 38.9028C59.7131 38.9028 60.1009 38.7735 60.4886 38.3858C61.1349 37.7395 61.1349 36.7056 60.4886 36.0593L56.3527 31.9234Z" fill="#EB1B28"/>
<path d="M54.9302 38.3858C54.284 37.7396 53.25 37.7396 52.6038 38.3858C51.9576 39.032 51.9576 40.066 52.6038 40.7123L54.1548 42.2632C54.4133 42.5217 54.9302 42.7802 55.318 42.7802C55.7057 42.7802 56.0935 42.651 56.4812 42.2632C57.1275 41.617 57.1275 40.583 56.4812 39.9368L54.9302 38.3858Z" fill="#EB1B28"/>
<path d="M78.9703 12.9241C78.3241 12.2779 77.2901 12.2779 76.6438 12.9241L67.4673 22.4885L64.7531 19.7743C64.1068 19.128 63.0728 19.128 62.4266 19.7743C62.2974 19.9035 62.2974 20.0328 62.1681 20.162L62.0389 20.0328C60.4879 18.4818 57.9029 18.4818 56.2227 20.0328L21.5843 54.6711C20.8089 55.4466 20.4211 56.4806 20.4211 57.5146C20.4211 58.5485 20.8089 59.5825 21.5843 60.358L25.4618 64.2354L18.4824 71.4733L15.7682 68.7591C15.122 68.1129 14.088 68.1129 13.4417 68.7591C12.7955 69.4053 12.7955 70.4393 13.4417 71.0856L21.0674 78.7112C21.3258 78.9697 21.8428 79.2282 22.2306 79.2282C22.6183 79.2282 23.0061 79.0989 23.3938 78.7112C24.04 78.0649 24.04 77.031 23.3938 76.3847L20.8089 73.7998L27.7882 66.5619L31.6657 70.4393C32.4411 71.2148 33.4751 71.6026 34.5091 71.6026C35.5431 71.6026 36.5771 71.2148 37.3526 70.4393L72.1209 35.801C72.8964 35.0255 73.2841 33.9915 73.2841 32.9575C73.2841 31.9235 72.8964 30.8896 72.1209 30.1141L71.8624 29.8556C71.9917 29.7263 72.1209 29.7263 72.2502 29.5971C72.8964 28.9508 72.8964 27.9169 72.2502 27.2706L69.6652 24.6857L78.8418 15.1213C79.6173 14.6044 79.6173 13.5704 78.971 12.9241H78.9703ZM70.0522 33.6038L35.1553 68.3721C35.0261 68.5014 34.7676 68.6306 34.5091 68.6306C34.2506 68.6306 34.1214 68.5014 33.8629 68.3721L23.7816 58.2908C23.6523 58.1615 23.5231 57.903 23.5231 57.6446C23.5231 57.3861 23.6523 57.2568 23.7816 56.9983L58.5499 22.3599C58.6792 22.2307 58.9377 22.1015 59.1961 22.1015C59.4546 22.1015 59.5839 22.2307 59.8424 22.3599L69.9237 32.4413C70.053 32.5705 70.1822 32.829 70.1822 33.0875C70.1822 33.346 70.1822 33.4752 70.053 33.6045L70.0522 33.6038Z" fill="#EB1B28"/>
<path d="M20.0334 40.3253C25.4618 40.3253 30.5024 38.2573 34.2506 34.3799C37.9988 30.6317 40.196 25.4618 40.196 20.1626C40.196 14.8635 38.1281 9.69357 34.2506 5.94539C30.5024 2.19721 25.3325 0 20.0334 0C14.7342 0 9.69357 2.06796 5.81614 5.81614C2.06796 9.56433 0 14.605 0 20.0334C0 25.4618 2.06796 30.5024 5.94539 34.2506C9.82282 37.9988 14.605 40.3253 20.0334 40.3253ZM31.9242 8.27185C35.1554 11.503 36.8356 15.7682 36.8356 20.1626C36.8356 24.1693 35.4139 27.9175 32.9581 30.8902L9.30657 7.23861C12.2793 4.7829 16.0274 3.36118 20.0341 3.36118C24.5578 3.36118 28.6937 5.0414 31.9249 8.27259L31.9242 8.27185ZM6.97863 9.43508L30.7602 33.2166C27.7875 35.6723 24.0393 37.0941 20.0326 37.0941C15.509 37.0941 11.2438 35.2846 8.14186 32.1827C4.91067 28.9515 3.23045 24.6863 3.23045 20.2919C3.10121 16.2852 4.52293 12.537 6.97863 9.43508Z" fill="#EB1B28"/>
</svg>
