<svg width="72" height="76" viewBox="0 0 72 76" fill="none" xmlns="http://www.w3.org/2000/svg">
<path d="M26.9929 10.4739V4.00838C26.9929 3.15093 26.6524 2.32896 26.0458 1.7224C25.4398 1.11638 24.6173 0.775879 23.7604 0.775879H13.4964C12.639 0.775879 11.8164 1.11638 11.2105 1.7224C10.6044 2.32898 10.2639 3.1509 10.2639 4.00838V25.5058C10.251 26.8921 9.85071 28.2479 9.10771 29.4187C8.36527 30.5896 7.30995 31.5299 6.06132 32.1326C4.24725 33.0013 2.71547 34.365 1.64276 36.067C0.570528 37.7683 0.000577268 39.7385 0 41.75V67.2884C0 69.4318 0.85124 71.4871 2.36709 73.003C3.88242 74.5184 5.93836 75.3701 8.08176 75.3701H29.1751C31.3185 75.3701 33.3739 74.5183 34.8898 73.003C36.4051 71.4871 37.2569 69.4318 37.2569 67.2884V41.75C37.2558 39.7385 36.6864 37.7683 35.6136 36.067C34.5413 34.365 33.0097 33.0014 31.1956 32.1326C29.9469 31.53 28.8916 30.5897 28.1486 29.4187C27.4062 28.2478 27.0059 26.892 26.993 25.5058L26.9929 10.4739ZM13.4964 4.00838H23.7603V10.4739H13.4964V4.00838ZM34.024 67.2885C34.024 68.5744 33.5133 69.8079 32.604 70.7172C31.6947 71.6265 30.4612 72.1372 29.1753 72.1372H8.0819C6.79601 72.1372 5.56256 71.6265 4.65322 70.7172C3.74334 69.8079 3.23259 68.5744 3.23259 67.2885V64.8638H34.0241L34.024 67.2885ZM34.024 61.6314H3.23253V48.7003H34.024V61.6314ZM29.8219 35.1233C31.0706 35.7259 32.126 36.6662 32.8683 37.8372C33.6107 39.0081 34.0116 40.3633 34.024 41.75V45.4679H3.2325V41.75C3.24547 40.3632 3.64572 39.008 4.38816 37.8372C5.13117 36.6663 6.1865 35.7259 7.43513 35.1233C9.2492 34.2546 10.781 32.8908 11.8537 31.1889C12.9259 29.4876 13.4953 27.5173 13.4964 25.5058V13.7062H23.7604V25.5058C23.761 27.5173 24.3309 29.4876 25.4032 31.1889C26.4754 32.8908 28.0071 34.2545 29.8217 35.1233H29.8219Z" fill="#EB1B28"/>
<path d="M71.5233 44.4173C71.2054 44.0925 70.7657 43.9161 70.3113 43.9324H45.2579C44.8001 43.9302 44.3621 44.1224 44.0537 44.4612C43.7459 44.8006 43.596 45.2544 43.6416 45.7105L45.6621 70.0366C45.8041 71.6516 46.5471 73.1541 47.7445 74.2472C48.9425 75.3397 50.5063 75.9423 52.1276 75.9361H63.4418C65.058 75.9243 66.6123 75.3149 67.8056 74.2257C68.999 73.1364 69.7477 71.6443 69.9072 70.0366L71.9276 45.6297C71.9654 45.1877 71.8194 44.7491 71.5234 44.4176L71.5233 44.4173ZM68.6139 47.1649L67.0788 64.6215H48.4908L47.0358 47.1649H68.6139ZM63.4416 72.7033H52.1274C51.3106 72.7055 50.523 72.3983 49.9233 71.8436C49.3235 71.2889 48.9559 70.5278 48.895 69.7132L48.7332 67.8545L66.8363 67.8539L66.6746 69.7132C66.6131 70.5278 66.2455 71.2888 65.6457 71.8436C65.0465 72.3983 64.2589 72.7055 63.4416 72.7033L63.4416 72.7033Z" fill="#EB1B28"/>
</svg>
