<svg width="32" height="28" viewBox="0 0 32 28" fill="none" xmlns="http://www.w3.org/2000/svg">
<path d="M24.1824 15.9133C21.2701 15.9133 18.8662 18.1556 18.6061 21.005C17.8337 20.5478 16.9391 20.2996 16.0169 20.2996C15.0908 20.2996 14.1963 20.5479 13.4238 21.0012C13.1637 18.1519 10.7598 15.9134 7.84753 15.9134C4.758 15.9134 2.24348 18.4276 2.24348 21.5174C2.24348 24.6032 4.75772 27.1173 7.84753 27.1173C10.1371 27.1173 12.1155 25.7302 12.9785 23.7518C13.0532 23.5863 13.1165 23.4167 13.1714 23.2435C13.1794 23.2317 13.1833 23.2199 13.1871 23.208C13.8609 22.3685 14.933 21.8759 16.0166 21.8759C17.1517 21.8759 18.2155 22.4158 18.8857 23.3339C19.6425 25.5328 21.7312 27.1174 24.1825 27.1174C27.272 27.1174 29.7865 24.6031 29.7865 21.5175C29.7862 18.4279 27.2721 15.9134 24.1825 15.9134L24.1824 15.9133ZM11.7172 22.617L11.6501 22.7154V22.8297C11.1063 24.406 9.60489 25.541 7.84717 25.541C5.62436 25.541 3.8197 23.7361 3.8197 21.5173C3.8197 19.2945 5.62464 17.4899 7.84717 17.4899C10.0658 17.4899 11.8708 19.2948 11.8708 21.5173C11.8708 21.8997 11.8194 22.2662 11.7172 22.6169L11.7172 22.617ZM24.1824 25.541C22.4167 25.541 20.9152 24.4021 20.3753 22.8179V22.7154L20.3162 22.6288C20.2137 22.2742 20.1587 21.9036 20.1587 21.5174C20.1587 19.2946 21.9637 17.4899 24.1824 17.4899C26.4052 17.4899 28.2099 19.2949 28.2099 21.5174C28.2099 23.7361 26.4049 25.5411 24.1824 25.5411L24.1824 25.541Z" fill="#EB1B28"/>
<path d="M31.2127 11.3537H28.0047C27.5989 5.12323 22.4009 0.177734 16.0715 0.177734C9.74201 0.177734 4.54852 5.12365 4.13825 11.3502H0.811977C0.378462 11.3502 0.0238647 11.7048 0.0238647 12.1383C0.0238647 12.5718 0.378483 12.9264 0.811977 12.9264H31.2119C31.6454 12.9264 32 12.5718 32 12.1383C32 11.7045 31.6492 11.3538 31.2119 11.3538L31.2127 11.3537ZM5.71855 11.3537C6.12457 5.9941 10.6092 1.75762 16.0712 1.75762C21.5334 1.75762 26.022 5.99403 26.428 11.3537H5.71855Z" fill="#424242"/>
</svg>
