<svg width="66" height="66" viewBox="0 0 66 66" fill="none" xmlns="http://www.w3.org/2000/svg">
<path d="M36.8264 52.7703C37.0872 53.1041 37.1797 53.5394 37.0758 53.9497C37.0461 54.0701 33.8974 65.9885 19.2456 65.9885C16.3286 65.9885 13.2742 64.5077 10.8668 61.928C10.0012 61.0002 8.88908 60.49 7.73639 60.49H1.37518C0.616269 60.49 0 59.8749 0 59.1149C0 58.3559 0.616269 57.7408 1.37518 57.7408H7.73639C9.65935 57.7408 11.4853 58.5614 12.877 60.0535C13.7711 61.0116 16.1826 63.2397 19.2462 63.2397C28.5221 63.2397 32.3606 57.8378 33.7393 54.9915L1.37591 54.9909C0.617 54.9909 0.000729983 54.3758 0.000729983 53.6158C0.000729983 52.8568 0.617 52.2417 1.37591 52.2417H35.7434C36.1668 52.2406 36.5668 52.4363 36.8265 52.7701L36.8264 52.7703ZM19.2475 49.4916C16.5948 49.4916 14.4361 47.333 14.4361 44.6801C14.4361 42.5614 17.219 37.8111 18.0721 36.4051C18.5719 35.5846 19.9232 35.5846 20.423 36.4051C21.2761 37.8105 24.059 42.5615 24.059 44.6801C24.0596 47.3328 21.901 49.4916 19.2475 49.4916ZM17.1854 44.6807C17.1854 45.8179 18.1103 46.7428 19.2475 46.7428C20.3848 46.7428 21.3097 45.8179 21.3097 44.6807C21.3097 44.0033 20.3739 41.9508 19.2475 39.8807C18.1223 41.9509 17.1854 44.004 17.1854 44.6807ZM60.4899 50.865V56.364C60.4899 57.1229 59.8748 57.7392 59.1147 57.7392H56.3655V60.4884C56.3655 61.2473 55.7504 61.8624 54.9915 61.8624H49.4924C48.7324 61.8624 48.1172 61.2473 48.1172 60.4884V57.7392H45.3681C44.608 57.7392 43.994 57.1241 43.994 56.364V50.865C43.994 50.1061 44.6086 49.4909 45.3681 49.4909H48.1172V46.7418C48.1172 45.9829 48.7324 45.3666 49.4924 45.3666H54.9915C55.7504 45.3666 56.3655 45.9817 56.3655 46.7418V49.4909H59.1147C59.8747 49.4909 60.4899 50.1061 60.4899 50.865ZM57.7401 52.2402H54.991C54.2309 52.2402 53.6158 51.625 53.6158 50.865V48.1158H50.8666V50.865C50.8666 51.6239 50.2515 52.2402 49.4926 52.2402H46.7434V54.9893H49.4926C50.2515 54.9893 50.8666 55.6044 50.8666 56.3633V59.1125H53.6158V56.3633C53.6158 55.6044 54.2309 54.9893 54.991 54.9893H57.7401V52.2402ZM65.5855 24.8726L56.9145 33.5436C56.7444 33.7137 56.5385 33.8244 56.3222 33.8866L55.4172 35.0267C55.3853 35.0677 55.3499 35.1065 55.3122 35.1436C53.533 36.925 51.0754 37.7919 48.5699 37.5099L44.4175 37.0477C43.9924 37.0044 43.5907 37.1459 43.2945 37.442L40.3398 40.3961C40.8762 40.9337 40.8762 41.8033 40.3393 42.3397L38.3957 44.2832C37.5917 45.0872 36.5362 45.4901 35.4805 45.4901C34.4237 45.4901 33.368 45.0884 32.564 44.2832L18.9549 30.6759C18.1755 29.8981 17.7469 28.8613 17.7469 27.7595C17.7469 26.6582 18.1766 25.6225 18.9549 24.843L20.8995 22.8985C21.4148 22.3832 22.3277 22.3832 22.8431 22.8985V22.899L25.7972 19.9449C26.0939 19.6482 26.2371 19.2391 26.1915 18.8208L25.7298 14.6684C25.4519 12.1645 26.3141 9.70635 28.0955 7.92552C28.1326 7.88786 28.1726 7.85249 28.2131 7.81996L29.3532 6.91611C29.4154 6.69927 29.5255 6.495 29.6961 6.32495L35.6179 0.403139C36.1555 -0.13438 37.0251 -0.13438 37.5625 0.403139C38.0641 0.904709 38.0909 1.69215 37.6567 2.23246C37.6258 2.27069 37.5985 2.31178 37.5625 2.34715L32.613 7.29668L55.9429 30.6266L63.5366 23.033L63.6422 22.9268C64.1785 22.3904 65.0493 22.3904 65.5857 22.9268C66.1221 23.4655 66.1221 24.3357 65.5851 24.8726L65.5855 24.8726ZM53.9188 32.4926L30.748 9.32189L29.9874 9.9256C28.8353 11.1085 28.2801 12.7233 28.4632 14.3684L28.9237 18.5202C29.0635 19.7715 28.6333 21.0011 27.7414 21.8919L24.7873 24.846L38.3958 38.4546L40.341 36.51L29.6477 25.8173C29.1113 25.2798 29.1113 24.4102 29.6477 23.8727C30.1852 23.3363 31.0548 23.3363 31.5913 23.8727L42.4392 34.7189C43.1376 34.3731 43.9263 34.2282 44.7234 34.3172L48.8741 34.7789C50.5141 34.9597 52.1339 34.4068 53.3151 33.2531L53.9188 32.4926ZM34.5081 42.3414C35.0456 42.8766 35.9152 42.8766 36.4526 42.3414L37.4244 41.3697L21.8716 25.8168L20.8998 26.7886C20.6396 27.0488 20.4964 27.3929 20.4964 27.7603C20.4964 28.1278 20.6396 28.473 20.8998 28.7315V28.7321L34.5081 42.3414Z" fill="#008D93"/>
</svg>
