<svg width="19" height="19" viewBox="0 0 19 19" fill="none" xmlns="http://www.w3.org/2000/svg">
<g clip-path="url(#clip0_242_502)">
<path d="M17.3299 2.26367H1.66972C1.41266 2.26367 1.17201 2.32687 0.954285 2.43104L9.46268 10.9394L11.3697 9.10671C11.3697 9.10671 11.3698 9.10653 11.3699 9.10646C11.3699 9.10638 11.3701 9.10631 11.3701 9.10631L18.0456 2.43118C17.8278 2.32694 17.587 2.26367 17.3299 2.26367Z" fill="#EB1B28"/>
<path d="M18.833 3.21826L12.551 9.49991L18.8328 15.7817C18.937 15.564 19.0002 15.3233 19.0002 15.0662V3.93343C19.0002 3.67653 18.9371 3.43591 18.833 3.21826Z" fill="#EB1B28"/>
<path d="M0.167363 3.21777C0.0631973 3.43549 0 3.67615 0 3.93321V15.066C0 15.3229 0.063123 15.5636 0.167215 15.7813L6.4492 9.49961L0.167363 3.21777Z" fill="#EB1B28"/>
<path d="M11.7639 10.2872L9.85662 12.1201C9.74789 12.2289 9.60546 12.2832 9.46307 12.2832C9.32069 12.2832 9.17822 12.2289 9.06953 12.1201L7.23647 10.2871L0.954376 16.5688C1.17213 16.673 1.41294 16.7363 1.67007 16.7363H17.3302C17.5873 16.7363 17.8279 16.6731 18.0457 16.5689L11.7639 10.2872Z" fill="#EB1B28"/>
</g>
<defs>
<clipPath id="clip0_242_502">
<rect width="19" height="19" fill="white"/>
</clipPath>
</defs>
</svg>
