<svg width="79" height="72" viewBox="0 0 79 72" fill="none" xmlns="http://www.w3.org/2000/svg">
<path d="M67.727 36.6401H44.2471H44.0971V36.7901V71.006V71.156H44.2471H78.463H78.613L78.613 71.006L78.6136 36.7901V36.6401L78.4636 36.6401L68.679 36.6407L69.4728 36.244L69.607 36.1769L69.54 36.0428L62.1404 21.2317L62.0989 21.1487H62.0062H55.7077H55.5577V21.2987V22.8878V23.0378H55.7077H60.9312L67.727 36.6401ZM76.7251 69.2688H45.9879V38.5301H76.7251V69.2688Z" fill="#008D93" stroke="#008D93" stroke-width="0.3"/>
<path d="M35.4864 14.0952H35.3364V14.2452V19.1278H30.4539H30.3039V19.2778V24.9107V25.0607H30.4539H35.3364V29.9432V30.0932H35.4864H41.1193H41.2693V29.9432V25.0607H46.1519H46.3019V24.9107V19.2778V19.1278H46.1519H41.2693V14.2452V14.0952H41.1193H35.4864ZM37.2255 20.8667V15.9841H39.3804V20.8667V21.0167H39.5304H44.413V23.1716H39.5304H39.3804V23.3216V28.2042H37.2255V23.3216V23.1716H37.0755H32.1929V21.0167H37.0755H37.2255V20.8667Z" fill="#008D93" stroke="#008D93" stroke-width="0.3"/>
<path d="M41.4025 57.8427L41.4025 57.9927L41.4026 61.2554H42.4176H42.5676V61.4054V70.7804V70.9303L42.4176 70.9304L18.6894 70.9321L18.5394 70.9321V70.7821V67.9157V67.8645L18.5707 67.824L23.5537 61.3768C23.2493 59.7132 21.7916 58.441 20.0447 58.4297L12.8335 58.3821L12.8332 58.3821C11.4479 58.3698 10.157 57.8135 9.19725 56.8164C8.23687 55.8192 7.73036 54.5065 7.77069 53.1225L7.77086 53.1165L7.77098 53.1165L7.77552 53.0507L7.77597 53.0442L7.77611 53.0442L7.8759 52.1597C7.87592 52.1596 7.87593 52.1594 7.87594 52.1593C7.93781 51.583 7.70305 51.0206 7.24611 50.657L7.3395 50.5396L7.24609 50.657L6.52317 50.0816C5.51769 49.2823 5.13476 47.9332 5.56965 46.7241L5.56973 46.7239C5.6806 46.4172 5.65023 46.0791 5.48672 45.7961L5.12921 45.1776C4.68221 44.4042 4.6048 43.4763 4.91573 42.6325L4.91575 42.6325C5.18967 41.8895 5.35155 41.2117 5.40104 40.6382C5.45078 40.0618 5.38578 39.6055 5.22215 39.2935L5.22208 39.2934C5.06798 38.9989 4.81281 38.8078 4.38817 38.6989C3.50281 38.4718 2.73631 38.1372 2.1137 37.7009C1.29688 37.1303 0.760727 36.2297 0.643426 35.2309L0.792389 35.2134L0.643425 35.2309C0.523804 34.2117 0.845881 33.1874 1.52753 32.4211C1.52755 32.421 1.52757 32.421 1.52759 32.421L7.47672 25.7256C7.49959 25.6944 7.52987 25.6294 7.5609 25.5252C7.59175 25.4216 7.61938 25.2932 7.64216 25.151C7.68775 24.8666 7.71213 24.5382 7.70719 24.2636L7.70714 24.2609L7.70717 17.4578C7.70717 14.803 8.50934 12.2462 10.026 10.064L10.0261 10.0639L11.9504 7.29862C12.9325 5.88654 14.6996 5.27417 16.3451 5.77431C18.3332 6.37718 19.8204 6.8293 21.6569 7.38763C22.0624 7.51092 22.485 7.63939 22.9337 7.7758L24.2741 8.18326L24.4177 8.2269L24.374 8.37044L23.9115 9.89077L23.8679 10.0342L23.7244 9.99063L22.384 9.58317L22.4276 9.43965L22.3839 9.58316L21.8465 9.41973C19.6514 8.7522 18.0437 8.26332 15.796 7.5817L15.7958 7.58166C14.9355 7.31971 14.0136 7.63966 13.5003 8.37734L13.5003 8.37736L11.576 11.1421C10.2798 13.006 9.59511 15.19 9.59511 17.4577V24.2367C9.59913 24.4588 9.59485 24.9327 9.51043 25.4478C9.42655 25.9595 9.26014 26.5347 8.92432 26.9388L8.92286 26.9406L8.92284 26.9405L8.90582 26.9604L8.90408 26.9624L8.90406 26.9624L2.93911 33.6758C2.61573 34.0399 2.46283 34.5261 2.51967 35.0103C2.57548 35.4823 2.81593 35.8873 3.19714 36.1534L3.19743 36.1536C3.62788 36.4556 4.18489 36.6972 4.8578 36.8694L4.85791 36.8694C5.77913 37.1057 6.48768 37.6389 6.89539 38.4159L6.76256 38.4856L6.89539 38.4159C7.2869 39.1624 7.35989 40.037 7.27501 40.8898C7.19002 41.7438 6.94552 42.5886 6.68821 43.2864M41.4025 57.8427L6.54747 43.2345M41.4025 57.8427H41.2525H39.6635H39.5135V57.9927V61.2562M41.4025 57.8427L39.5135 61.2562M6.68821 43.2864L6.54747 43.2345M6.68821 43.2864C6.68822 43.2863 6.68822 43.2863 6.68823 43.2863L6.54747 43.2345M6.68821 43.2864C6.57165 43.6029 6.60025 43.9473 6.76474 44.232L7.12222 44.8505L6.99238 44.9256M6.54747 43.2345C6.41582 43.592 6.44759 43.983 6.63487 44.307L6.99238 44.9256M6.99238 44.9256L7.12225 44.8505L7.60585 48.721C7.18421 48.3856 7.0236 47.8198 7.20633 47.3131C7.49064 46.5231 7.4129 45.6525 6.99238 44.9256ZM39.5135 61.2562H25.4469C25.0744 58.6114 22.8002 56.5575 20.057 56.5397L12.8485 56.4921L12.8482 56.4921L39.5135 61.2562ZM40.6785 63.1451L40.6786 65.9578H37.174H37.024V66.1078V67.6969V67.8469H37.174H40.6786V69.0416L20.4276 69.0422V68.5079L24.5729 63.1451H40.6785Z" fill="#008D93" stroke="#008D93" stroke-width="0.3"/>
<path d="M14.0834 4.60311C15.0049 3.42986 16.3836 2.75278 17.873 2.73893L32.7479 4.19607L32.7625 4.04679L32.7479 4.19607C33.8722 4.30616 34.9542 4.61007 35.9629 5.09884L36.0979 5.16424L36.1633 5.02928L36.8562 3.59978L36.9216 3.46483L36.7867 3.39939C35.576 2.81216 34.2792 2.44816 32.9319 2.31591L32.9319 2.31591L18.0104 0.854119L18.0104 0.853905L18.0024 0.85355L17.9252 0.850146L17.9252 0.85H17.9186C15.8297 0.85 13.8896 1.79274 12.5984 3.43543L12.5057 3.55333L12.6236 3.64603L13.8727 4.62836L13.9907 4.72114L14.0834 4.60311Z" fill="#008D93" stroke="#008D93" stroke-width="0.3"/>
<path d="M39.6632 41.8679H39.5132V42.0179V55.9998V56.1498H39.6632H41.2522H41.4022V55.9998V42.0179V41.8679H41.2522H39.6632Z" fill="#008D93" stroke="#008D93" stroke-width="0.3"/>
<path d="M22.9878 22.0931C22.9878 30.5384 29.858 37.4086 38.3034 37.4086C46.7487 37.4086 53.6189 30.5384 53.6189 22.0931C53.6189 13.6477 46.7487 6.77749 38.3034 6.77749C29.858 6.77749 22.9878 13.6483 22.9878 22.0931ZM38.3034 8.66639C45.7069 8.66639 51.73 14.6896 51.73 22.0931C51.73 29.4965 45.7069 35.5197 38.3034 35.5197C30.8999 35.5197 24.8767 29.4965 24.8767 22.0931C24.8767 14.6896 30.8999 8.66639 38.3034 8.66639Z" fill="#008D93" stroke="#008D93" stroke-width="0.3"/>
<path d="M30.1791 13.2697L30.0687 13.3714L30.1704 13.4817L31.2469 14.6501L31.3485 14.7604L31.4589 14.6588C33.3288 12.9365 35.7594 11.9882 38.3033 11.9882C43.8755 11.9882 48.409 16.5217 48.409 22.0939C48.409 27.6662 43.8755 32.2003 38.3033 32.2003C32.731 32.2003 28.1975 27.6668 28.1975 22.0939C28.1975 20.1007 28.7768 18.1734 29.8727 16.5195L29.9556 16.3945L29.8305 16.3116L28.506 15.4343L28.381 15.3515L28.2982 15.4765C26.9964 17.4403 26.3086 19.7294 26.3086 22.0945C26.3086 28.708 31.6891 34.0892 38.3032 34.0892H38.3608L38.3611 34.0889C44.9487 34.0577 50.298 28.6892 50.298 22.0938C50.298 15.4797 44.9175 10.0991 38.3034 10.0991C35.2842 10.0991 32.3985 11.225 30.1791 13.2697Z" fill="#008D93" stroke="#008D93" stroke-width="0.3"/>
<path d="M58.8766 40.4069V40.2569H58.7266H46.8591H46.7091V40.4069V45.3162V45.4662H46.8591H58.7266H58.8766V45.3162V40.4069ZM56.9875 43.5768H48.5981V42.1453H56.9875V43.5768Z" fill="#008D93" stroke="#008D93" stroke-width="0.3"/>
<path d="M57.9319 63.8717H57.7819V64.0217V65.6108V65.7608H57.9319H67.6792H67.8292V65.6108V64.0217V63.8717H67.6792H57.9319Z" fill="#008D93" stroke="#008D93" stroke-width="0.3"/>
<path d="M57.9319 60.2615H57.7819V60.4115V62.0005V62.1505H57.9319H75.4364H75.5864V62.0005V60.4115V60.2615H75.4364H57.9319Z" fill="#008D93" stroke="#008D93" stroke-width="0.3"/>
<path d="M57.9319 49.4761H57.7819V49.6261V51.2152V51.3652H57.9319H75.4364H75.5864V51.2152V49.6261V49.4761H75.4364H57.9319Z" fill="#008D93" stroke="#008D93" stroke-width="0.3"/>
<path d="M72.4597 53.0863H72.3097V53.2363V54.8254V54.9754H72.4597H75.4367H75.5867V54.8254V53.2363V53.0863H75.4367H72.4597Z" fill="#008D93" stroke="#008D93" stroke-width="0.3"/>
<path d="M57.9319 53.0863H57.7819V53.2363V54.8254V54.9754H57.9319H70.3781H70.5281V54.8254V53.2363V53.0863H70.3781H57.9319Z" fill="#008D93" stroke="#008D93" stroke-width="0.3"/>
<path d="M65.3207 41.9159H65.1707V42.0659V43.655V43.805H65.3207H75.4363H75.5863V43.655V42.0659V41.9159H75.4363H65.3207Z" fill="#008D93" stroke="#008D93" stroke-width="0.3"/>
<path d="M60.528 41.9159H60.378V42.0659V43.655V43.805H60.528H63.0959H63.2459V43.655V42.0659V41.9159H63.0959H60.528Z" fill="#008D93" stroke="#008D93" stroke-width="0.3"/>
<path d="M52.2907 50.0885H52.4407V49.9385V48.3495V48.1995H52.2907H46.9938H46.8438V48.3495V56.102V56.252H46.9938H54.7457H54.8957V56.102V52.6664V52.5164H54.7457H53.1566H53.0066V52.6664V54.363H48.7327V50.0885H52.2907Z" fill="#008D93" stroke="#008D93" stroke-width="0.3"/>
<path d="M50.0774 50.5064L49.9713 50.4003L49.8652 50.5064L48.7422 51.6301L48.6362 51.7361L48.7422 51.8422L51.0922 54.1922L51.1983 54.2983L51.3044 54.1922L57.0917 48.4043L57.1977 48.2982L57.0916 48.1921L55.968 47.0691L55.8619 46.9631L55.7559 47.0691L51.1982 51.6267L50.0774 50.5064Z" fill="#008D93" stroke="#008D93" stroke-width="0.3"/>
<path d="M53.0065 63.4521L53.0066 65.1487H48.7327V60.8742H52.2906H52.4406V60.7242V59.1351V58.9851H52.2906H46.9936H46.8436V59.1351V66.8876V67.0376H46.9936H54.7455H54.8955V66.8876V63.4521V63.3021H54.7455H53.1565H53.0064L53.0065 63.4521Z" fill="#008D93" stroke="#008D93" stroke-width="0.3"/>
<path d="M50.0774 61.2918L49.9713 61.1857L49.8652 61.2918L48.7422 62.4154L48.6362 62.5215L48.7422 62.6275L51.0922 64.9776L51.1983 65.0836L51.3044 64.9776L57.0916 59.1903L57.1977 59.0842L57.0916 58.9781L55.968 57.8545L55.8619 57.7484L55.7559 57.8545L51.1982 62.4121L50.0774 61.2918Z" fill="#008D93" stroke="#008D93" stroke-width="0.3"/>
</svg>
