<svg width="40" height="34" viewBox="0 0 40 34" fill="none" xmlns="http://www.w3.org/2000/svg">
<path d="M27.9758 21.8455L32.0016 21.8472C32.2821 21.8472 32.5609 21.8489 32.8397 21.8489C33.2142 21.8489 33.5887 21.8472 33.9616 21.8422C34.6385 21.832 34.929 21.4889 35.0416 21.2854C35.1541 21.0835 35.2918 20.6596 34.9508 20.0962L34.4201 19.2249C34.017 18.5655 33.6122 17.907 33.2377 17.2316C32.8463 16.5218 32.3375 16.1577 31.4188 16.1905C30.663 16.1989 29.9055 16.1973 29.1448 16.1956L27.9607 16.1948C27.0756 16.1965 26.6255 16.6438 26.6221 17.5244C26.6187 18.5118 26.6187 19.4991 26.6221 20.4865C26.6255 21.3846 27.0806 21.8422 27.9758 21.8455ZM28.0061 17.5723L29.1431 17.5741C29.909 17.5749 30.6715 17.5783 31.434 17.5682C31.7632 17.585 31.8875 17.6355 32.0353 17.8987C32.4182 18.5925 32.8331 19.2687 33.248 19.9466L33.5638 20.468C33.0398 20.4713 32.5242 20.4713 32.0069 20.468L30.8983 20.4663L29.9225 20.468L27.9995 20.4579C27.996 19.5344 27.996 18.6109 28.0061 17.5723Z" fill="#EB1B28"/>
<path d="M31.3988 25.8875C29.6235 25.8875 28.1791 27.334 28.1791 29.1119C28.1791 30.8898 29.6235 32.3363 31.3988 32.3363C33.1723 32.3363 34.6167 30.8898 34.6167 29.1119C34.6167 27.334 33.1723 25.8875 31.3988 25.8875ZM31.3988 30.957C30.3827 30.957 29.5564 30.1295 29.5564 29.1119C29.5564 28.0943 30.3827 27.2668 31.3988 27.2668C32.4148 27.2668 33.2396 28.0943 33.2396 29.1119C33.2396 30.1295 32.4148 30.957 31.3988 30.957Z" fill="#0B1620"/>
<path d="M28.4545 23.9615C28.834 23.9615 29.1431 23.652 29.1431 23.2719C29.1431 22.8918 28.834 22.5823 28.4545 22.5823H26.7162C26.3367 22.5823 26.0276 22.8918 26.0276 23.2719C26.0276 23.652 26.3367 23.9615 26.7162 23.9615H28.4545Z" fill="#EB1B28"/>
<path d="M31.3992 30.1634C31.9794 30.1634 32.4498 29.6923 32.4498 29.1112C32.4498 28.5301 31.9794 28.0591 31.3992 28.0591C30.819 28.0591 30.3486 28.5301 30.3486 29.1112C30.3486 29.6923 30.819 30.1634 31.3992 30.1634Z" fill="#EB1B28"/>
<path d="M1.29227 29.4282L4.83429 29.4299H4.83438C4.83447 29.4299 4.83447 29.4299 4.83456 29.4299H4.89312C4.91529 29.4299 4.93385 29.4193 4.95547 29.4172C5.02205 29.4115 5.08601 29.4027 5.14629 29.3785C5.1671 29.3702 5.18368 29.3568 5.20341 29.3466C5.26125 29.3165 5.31575 29.2842 5.36278 29.2389C5.38458 29.2182 5.39954 29.1929 5.41855 29.1695C5.45369 29.1257 5.48774 29.083 5.51153 29.0311C5.52909 28.994 5.5354 28.9535 5.54603 28.9132C5.55576 28.8756 5.57486 28.8424 5.57838 28.8026C5.7346 26.9894 7.28394 25.568 9.10455 25.568C10.926 25.568 12.4754 26.9894 12.6307 28.8042C12.6345 28.8495 12.6541 28.8884 12.6662 28.9307C12.6756 28.9629 12.6792 28.9961 12.693 29.0261C12.7196 29.0858 12.758 29.136 12.7996 29.1849C12.8132 29.2008 12.8221 29.2198 12.837 29.2345C12.8978 29.2942 12.968 29.3426 13.0469 29.3765C13.0473 29.3767 13.0477 29.377 13.0481 29.3772C13.131 29.4128 13.2205 29.435 13.3152 29.435C13.3353 29.435 13.3545 29.4332 13.3747 29.4316L24.9009 29.433C24.9015 29.433 24.9017 29.4332 24.9023 29.4332C24.9028 29.4332 24.9031 29.433 24.9036 29.433L27.1881 29.4332C27.2298 29.4332 27.2662 29.4165 27.3059 29.4094C27.3485 29.402 27.3913 29.3987 27.4306 29.3841C27.4679 29.3699 27.4987 29.3473 27.5326 29.3271C27.5763 29.3015 27.6197 29.2781 27.6562 29.2437C27.6837 29.2177 27.7026 29.1857 27.7256 29.1556C27.7544 29.1174 27.7845 29.082 27.805 29.0378C27.8275 28.9908 27.8363 28.9391 27.8477 28.887C27.8539 28.8579 27.8691 28.8331 27.8717 28.8026C28.0279 26.9894 29.578 25.568 31.3986 25.568C33.221 25.568 34.7695 26.9894 34.924 28.8042C34.9543 29.1625 35.2548 29.435 35.6092 29.435C35.6277 29.435 35.6479 29.4332 35.668 29.4316C35.6691 29.4315 35.6698 29.4309 35.6707 29.4308C35.675 29.4309 35.6787 29.4333 35.683 29.4333C35.7351 29.435 35.7703 29.43 35.814 29.4216C35.8191 29.4216 35.8224 29.4216 35.8275 29.4233C35.8846 29.4284 35.9467 29.4317 36.0139 29.4334H36.0156H36.0173C36.019 29.4334 36.019 29.4334 36.019 29.4334L37.0805 29.4351C38.1167 29.4318 38.5803 28.9709 38.5803 27.9398V27.0299C38.582 25.358 38.5836 23.6877 38.5735 22.0175C38.5702 21.6693 38.4643 21.3009 38.283 21.0066C37.6481 19.9688 37.0082 18.9361 36.3683 17.9016L34.5679 14.985C34.0993 14.2189 33.3586 13.8042 32.5474 13.8371C31.1501 13.8438 29.751 13.8446 28.3553 13.8413L25.6831 13.8421C25.6474 13.8421 25.6249 13.8534 25.5908 13.8545V12.1962C25.5908 11.8161 25.2817 11.5074 24.9022 11.5074H20.4452C20.6075 10.8282 20.716 10.129 20.716 9.40068C20.716 4.38659 16.6423 0.306885 11.6355 0.306885C6.62878 0.306885 2.55529 4.38623 2.55529 9.40032C2.55529 10.1286 2.66376 10.8278 2.82602 11.507H1.29227C0.912702 11.507 0.604492 11.8157 0.604492 12.1958V28.7385C0.604492 29.1187 0.911801 29.4265 1.29227 29.4282ZM25.5926 15.3261C25.5926 15.2848 25.5926 15.2504 25.5943 15.221C25.6195 15.2201 25.6497 15.2192 25.6866 15.2192H28.3537C29.7528 15.2184 31.1519 15.2201 32.5543 15.2142C32.5576 15.2142 32.561 15.2142 32.5626 15.2142C32.9506 15.2142 33.1774 15.3479 33.3957 15.7045L35.1996 18.627C35.8378 19.659 36.4777 20.6901 37.1109 21.7279C37.1613 21.8086 37.1966 21.9314 37.1966 22.0272C37.2083 23.6925 37.2067 25.361 37.205 27.0279L37.2033 27.9395C37.2033 27.9849 37.2033 28.0219 37.2016 28.0522C37.168 28.0556 37.1277 28.0556 37.0789 28.0556L36.1786 28.0541C35.6879 25.8456 33.7117 24.1886 31.3988 24.1886C29.0869 24.1886 27.1091 25.8449 26.6175 28.0538L25.591 28.0537L25.5926 15.3261ZM4.6387 8.71153H4.00039C4.33391 5.01412 7.25592 2.0877 10.9479 1.75377V2.39384C10.9479 2.77396 11.2561 3.08263 11.6356 3.08263C12.0152 3.08263 12.3234 2.77396 12.3234 2.39384V1.75377C16.0153 2.08779 18.9374 5.01412 19.2709 8.71153H18.6318C18.2522 8.71153 17.944 9.0202 17.944 9.40032C17.944 9.78045 18.2522 10.0891 18.6318 10.0891H19.2709C18.9374 13.7865 16.0153 16.7129 12.3234 17.0469V16.4068C12.3234 16.0267 12.0152 15.718 11.6356 15.718C11.2561 15.718 10.9479 16.0267 10.9479 16.4068V17.0469C7.25592 16.7129 4.33382 13.7865 4.00039 10.0891H4.6387C5.01826 10.0891 5.32647 9.78045 5.32647 9.40032C5.32647 9.0202 5.01826 8.71153 4.6387 8.71153ZM1.98004 12.8846H3.25387C4.62239 16.1737 7.86153 18.4941 11.6357 18.4941C15.4099 18.4941 18.6491 16.1737 20.0176 12.8846H24.2138V16.0594C24.2138 16.0621 24.2154 16.0646 24.2154 16.0673L24.2139 28.0536L13.8849 28.0523C13.3928 25.8446 11.4163 24.1886 9.10473 24.1886C6.79473 24.1886 4.81772 25.8432 4.3249 28.0505H1.98004V12.8846Z" fill="#EB1B28"/>
<path d="M9.10462 25.8875C7.33023 25.8875 5.88666 27.334 5.88666 29.1119C5.88666 30.8898 7.33023 32.3363 9.10462 32.3363C10.8799 32.3363 12.3235 30.8898 12.3235 29.1119C12.3234 27.334 10.8798 25.8875 9.10462 25.8875ZM9.10462 30.957C8.08854 30.957 7.2622 30.1295 7.2622 29.1119C7.2622 28.0943 8.08854 27.2668 9.10462 27.2668C10.1207 27.2668 10.9479 28.0943 10.9479 29.1119C10.9478 30.1295 10.1207 30.957 9.10462 30.957Z" fill="#0B1620"/>
<path d="M9.10472 28.0596C8.52452 28.0596 8.05432 28.5306 8.05432 29.1117C8.05432 29.6928 8.52461 30.1638 9.10472 30.1638C9.68483 30.1638 10.1553 29.6928 10.1553 29.1117C10.1553 28.5306 9.68483 28.0596 9.10472 28.0596Z" fill="#EB1B28"/>
<path d="M39.1749 32.4524H1.32998C0.950414 32.4524 0.642204 32.7619 0.642204 33.142C0.642204 33.5221 0.950414 33.8316 1.32998 33.8316H39.1748C39.5544 33.8316 39.8634 33.5221 39.8634 33.142C39.8635 32.7619 39.5545 32.4524 39.1749 32.4524Z" fill="#0B1620"/>
<path d="M11.6355 10.6301C11.7107 10.6301 11.7762 10.6002 11.8477 10.5872L12.6799 11.4208C12.9575 11.6538 13.1419 11.9803 13.4888 12.1437C13.8906 12.2524 14.2637 12.3899 14.6971 12.4667C14.6204 12.0325 14.4831 11.659 14.3748 11.2565C14.2114 10.909 13.8856 10.7244 13.6529 10.4464L12.8206 9.61288C12.8335 9.54133 12.8634 9.47583 12.8634 9.4004C12.8634 8.98238 12.6417 8.63139 12.3234 8.40916V6.78463C12.329 6.34865 12.311 5.91267 12.336 5.47679C12.2171 5.04081 11.9253 4.60483 11.6356 4.16895C11.3457 4.60492 11.0539 5.0409 10.9352 5.47679C10.96 5.91276 10.942 6.34874 10.9476 6.78463V8.40916C10.6293 8.63139 10.4077 8.98247 10.4077 9.4004C10.4076 10.0795 10.9573 10.6301 11.6355 10.6301Z" fill="#0B1620"/>
</svg>
