<svg width="20" height="20" viewBox="0 0 20 20" fill="none" xmlns="http://www.w3.org/2000/svg">
<path d="M10 0C4.48421 0 0 4.48421 0 10C0 15.5158 4.48421 20 10 20C15.5158 20 20 15.5158 20 10C20 4.48421 15.5158 0 10 0ZM15.4947 13.7053C15.3053 14.1684 14.9684 14.6316 14.7579 14.8421C13.5579 16.0421 10.3368 14.9684 7.68421 12.3158C5.03158 9.66316 3.95789 6.46316 5.15789 5.24211C5.36842 5.03158 5.85263 4.69474 6.29474 4.50526C6.63158 4.35789 7.03158 4.46316 7.26316 4.75789L8.58947 6.4421C8.86316 6.77895 8.82105 7.28421 8.48421 7.57895C8.14737 7.87368 7.91579 8.08421 7.85263 8.14737C7.34737 8.65263 8.08421 9.72632 9.2 10.8421C10.3158 11.9579 11.3684 12.7158 11.8947 12.1895C11.9579 12.1263 12.1684 11.8947 12.4632 11.5579C12.7579 11.2211 13.2421 11.1789 13.6 11.4526L15.2842 12.7789C15.5579 12.9474 15.6421 13.3474 15.4947 13.7053Z" fill="white"/>
</svg>
