<svg width="22" height="22" viewBox="0 0 22 22" fill="none" xmlns="http://www.w3.org/2000/svg">
<path d="M15.0774 6.97472L9.20761 12.8416L6.58141 10.2154C6.24299 9.87698 5.69058 9.87698 5.35215 10.2154C5.01372 10.5538 5.01372 11.1062 5.35215 11.4447L8.59288 14.6854C8.76341 14.8559 8.98551 14.94 9.20742 14.94C9.42951 14.94 9.65141 14.8561 9.82195 14.6854L16.3062 8.20355C16.6446 7.86512 16.6446 7.31271 16.3062 6.97429C15.965 6.63321 15.4154 6.63321 15.077 6.97447L15.0774 6.97472Z" fill="#EB1B28"/>
<path d="M10.8297 0C4.85691 0 0 4.85691 0 10.8297C0 16.8024 4.85691 21.6593 10.8297 21.6593C16.8024 21.6593 21.6593 16.8024 21.6593 10.8297C21.6593 4.85691 16.8024 0 10.8297 0ZM10.8297 19.9213C5.81805 19.9213 1.73807 15.8439 1.73807 10.8297C1.73807 5.81544 5.8181 1.73807 10.8297 1.73807C15.8412 1.73807 19.9213 5.81544 19.9213 10.8297C19.9213 15.8439 15.8412 19.9213 10.8297 19.9213Z" fill="#EB1B28"/>
</svg>
