<svg width="64" height="72" viewBox="0 0 64 72" fill="none" xmlns="http://www.w3.org/2000/svg">
<path d="M8.56182 31.6852C8.55799 31.777 8.56674 31.8683 8.58695 31.9573C9.08095 37.3656 11.4542 42.4297 15.2942 46.2699C19.1347 50.1098 24.1993 52.4826 29.6081 52.9756C29.6955 52.9952 29.7846 53.0034 29.8742 52.9996C31.1628 53.1182 32.4595 53.1182 33.748 52.9996C33.842 53.0034 33.9355 52.9941 34.0262 52.9717C44.9221 52.1225 54.2199 42.8392 55.0326 31.9583V31.9577C55.054 31.8687 55.0627 31.7768 55.0589 31.685C55.1769 30.3981 55.1769 29.103 55.0589 27.8161C55.0627 27.7194 55.0523 27.6232 55.0288 27.5292C54.5763 22.8215 52.7063 18.3613 49.6658 14.7382C46.6254 11.1156 42.5576 8.50033 37.999 7.23862C37.3733 7.06703 36.7268 7.4359 36.5553 8.06159C36.3842 8.68784 36.7525 9.3343 37.3788 9.5053C41.2887 10.5895 44.8018 12.7819 47.4933 15.8186C50.1845 18.8547 51.9398 22.6057 52.5464 26.6177H47.9714C46.8517 26.6177 45.8173 27.2144 45.2577 28.1843C44.6976 29.1538 44.6976 30.3484 45.2577 31.3177C45.8173 32.2871 46.8518 32.8844 47.9714 32.8844H52.5584H52.5578C51.8857 37.3151 49.813 41.4141 46.6441 44.5824C43.4747 47.7503 39.3745 49.8213 34.9438 50.4924V45.9109C34.9438 44.7917 34.3465 43.7568 33.3771 43.1972C32.4077 42.6376 31.2131 42.6376 30.2438 43.1972C29.2744 43.7568 28.6771 44.7917 28.6771 45.9109V50.4804C24.2426 49.8279 20.1365 47.7639 16.967 44.5945C13.7976 41.425 11.7336 37.3189 11.0811 32.8844H15.6501H15.6495C16.7692 32.8844 17.8036 32.2871 18.3632 31.3177C18.9233 30.3483 18.9233 29.1537 18.3632 28.1843C17.8036 27.2144 16.7691 26.6177 15.6495 26.6177H11.0811C11.7331 22.1821 13.7965 18.0749 16.9659 14.9044C20.1354 11.7332 24.2421 9.66813 28.6771 9.01455V13.5895C28.6771 14.7086 29.2744 15.7436 30.2438 16.3032C31.2132 16.8627 32.4078 16.8627 33.3771 16.3032C34.3466 15.7436 34.9438 14.7086 34.9438 13.5895V7.67464C34.9384 7.53694 34.9121 7.40087 34.8657 7.27136C34.7077 6.85004 34.3263 6.55386 33.8793 6.50522C27.7387 5.95766 21.6309 7.86317 16.892 11.8065C12.1525 15.7493 9.16664 21.4078 8.58748 27.546C8.56726 27.6345 8.55852 27.7257 8.56234 27.8165C8.44431 29.1034 8.44431 30.3985 8.56234 31.6854L8.56182 31.6852ZM47.1879 29.7513C47.1879 29.3185 47.5387 28.9677 47.9715 28.9677H52.7793C52.8033 29.4917 52.8033 30.0103 52.7793 30.5344L47.9715 30.5349C47.5387 30.5349 47.1879 30.1841 47.1879 29.7513V29.7513ZM31.8108 45.1284C32.0184 45.1284 32.2179 45.211 32.3649 45.358C32.5119 45.5044 32.5944 45.7039 32.5944 45.9115V50.7198C32.072 50.7406 31.5501 50.7406 31.0277 50.7198L31.0272 45.9115C31.0272 45.4787 31.378 45.1284 31.8108 45.1284L31.8108 45.1284ZM32.5944 8.79382V13.5895C32.5944 14.0223 32.2436 14.3726 31.8108 14.3726C31.378 14.3726 31.0271 14.0223 31.0271 13.5895V8.79326C31.5507 8.77249 32.0709 8.77249 32.5944 8.79326L32.5944 8.79382ZM16.4339 29.7513C16.4339 29.959 16.3514 30.1584 16.2044 30.3054C16.0574 30.4519 15.8579 30.5349 15.6503 30.5349H10.8425C10.8185 30.0114 10.8185 29.4923 10.8425 28.9683H15.6503V28.9677C16.0831 28.9677 16.4339 29.3185 16.4339 29.7513L16.4339 29.7513Z" fill="#008D93"/>
<path d="M2.66808 66.916V68.3347C2.66918 69.0719 2.96263 69.779 3.48395 70.3004C4.00582 70.8217 4.71238 71.1146 5.45015 71.1151H16.2209C16.958 71.114 17.6651 70.8211 18.186 70.2998C18.7073 69.7785 19.0007 69.0719 19.0013 68.3347V66.9718H44.6186V68.3358C44.6197 69.073 44.9132 69.7795 45.4345 70.3009C45.9564 70.8217 46.6629 71.1146 47.4007 71.1151H58.1725C58.9097 71.114 59.6162 70.8211 60.1376 70.2998C60.6589 69.7785 60.9524 69.0719 60.9535 68.3347V66.9166C61.965 66.7346 62.83 66.0838 63.2852 65.163C63.741 64.2417 63.7322 63.1592 63.2628 62.245C62.7934 61.3313 61.918 60.6936 60.9044 60.5275C60.6956 59.0412 59.7797 57.7483 58.4464 57.0586C58.4175 57.0034 58.3836 56.9509 58.3453 56.9017L52.2113 50.5475C68.7537 34.58 60.395 5.94932 37.9337 1.25448C20.1028 -2.75921 2.458 11.4509 2.66785 29.7523C2.66129 33.5497 3.40229 37.3109 4.84823 40.8225C4.9608 41.1187 5.18868 41.3569 5.47993 41.4826C5.77119 41.6083 6.10071 41.611 6.39361 41.4908C6.68707 41.37 6.91876 41.1356 7.0368 40.8416C7.15484 40.5471 7.14882 40.2176 7.02041 39.9279C4.70614 34.2814 4.38816 28.014 6.11875 22.1614C7.84937 16.3099 11.5254 11.224 16.5392 7.74536C21.5524 4.26606 27.6034 2.60202 33.6915 3.02828C47.5153 3.86382 58.6934 15.8859 58.6038 29.7522C58.8388 44.199 46.233 56.8371 31.7442 56.5447C27.0856 56.5266 22.5124 55.2966 18.4729 52.9763C14.4335 50.6554 11.0672 47.3243 8.70496 43.3089C8.55031 43.0357 8.29239 42.8357 7.9891 42.7531C7.68581 42.6712 7.36231 42.7143 7.09072 42.8723C6.81913 43.0307 6.62239 43.2909 6.54426 43.5952C6.46612 43.8996 6.51311 44.2226 6.67487 44.492C7.97599 46.7128 9.57221 48.7473 11.4198 50.5392L5.27817 56.9021H5.27762C5.23991 56.9513 5.20603 57.0038 5.17652 57.0584C3.84261 57.748 2.92563 59.0427 2.71747 60.53C1.70324 60.6956 0.827783 61.3328 0.35844 62.2465C-0.11152 63.1607 -0.119718 64.2432 0.336034 65.164C0.791234 66.0853 1.65683 66.7356 2.66834 66.917L2.66808 66.916ZM16.652 68.3347C16.6509 68.5724 16.4586 68.7642 16.2209 68.7648H5.45015C5.21245 68.7642 5.02009 68.5724 5.019 68.3347V66.9718H16.652V68.3347ZM58.1725 68.7648H47.4007C47.1635 68.7642 46.9712 68.5719 46.9706 68.3347V66.9707H58.6031V68.3347C58.6025 68.5724 58.4091 68.7648 58.1714 68.7648H58.1725ZM44.6367 55.9218C46.723 54.8912 48.6778 53.6141 50.4597 52.1174L54.7308 56.5438H43.2486C43.7131 56.3416 44.1886 56.1449 44.6366 55.9219L44.6367 55.9218ZM20.3469 56.5437H8.89029L13.1527 52.1284C15.3239 53.9421 17.7468 55.4296 20.3469 56.5437ZM3.22249 62.828H40.1992C40.8484 62.828 41.3741 62.3023 41.3741 61.6531C41.3741 61.0039 40.8484 60.4782 40.1992 60.4782H5.13483C5.2802 60.0198 5.56653 59.6192 5.95398 59.3345C6.34142 59.0498 6.80974 58.8951 7.29008 58.894H31.8107C31.8577 58.8886 56.2823 58.894 56.3313 58.894C56.8116 58.8957 57.2794 59.0498 57.6663 59.3345C58.0532 59.6192 58.3401 60.0197 58.4849 60.4782H44.1178C43.4686 60.4782 42.9424 61.0039 42.9424 61.6531C42.9424 62.3023 43.4686 62.828 44.1178 62.828H59.7579C59.7705 62.8296 59.7831 62.8296 59.7951 62.828H60.3962C60.8918 62.828 61.2935 63.2296 61.2935 63.7253C61.2935 64.2204 60.8918 64.622 60.3962 64.622H3.22156C2.72646 64.622 2.32482 64.2204 2.32482 63.7253C2.32482 63.2296 2.72646 62.828 3.22156 62.828H3.22249Z" fill="#008D93"/>
<path d="M31.8108 17.8049C30.9796 17.8049 30.1828 18.135 29.5949 18.7224C29.0074 19.3099 28.6774 20.1072 28.6774 20.9384V26.351C24.1532 30.8483 30.7195 37.4054 35.2108 32.885H38.83C39.9497 32.885 40.9841 32.2877 41.5437 31.3183C42.1038 30.3489 42.1038 29.1543 41.5437 28.185C40.9841 27.215 39.9496 26.6183 38.83 26.6183H35.2125C35.1262 26.526 35.0376 26.4364 34.9447 26.3511L34.9442 20.9385C34.9442 20.1073 34.6141 19.31 34.0267 18.7226C33.4387 18.1351 32.6419 17.805 31.8108 17.805L31.8108 17.8049ZM31.0272 20.9383C31.0272 20.5055 31.378 20.1546 31.8108 20.1546C32.2436 20.1546 32.5944 20.5055 32.5944 20.9383V25.1908C32.0758 25.0973 31.5458 25.0973 31.0272 25.1908L31.0272 20.9383ZM31.8108 32.032C30.996 32.032 30.2424 31.597 29.8353 30.8915C29.4277 30.1855 29.4277 29.3161 29.8353 28.61C30.2425 27.9045 30.996 27.4696 31.8108 27.4696C32.6255 27.4696 33.3791 27.9045 33.7862 28.61C34.1939 29.316 34.1939 30.1855 33.7862 30.8915C33.3791 31.597 32.6255 32.032 31.8108 32.032ZM38.8301 28.968C39.2629 28.968 39.6137 29.3189 39.6137 29.7517C39.6137 30.1845 39.2629 30.5353 38.8301 30.5353H36.371C36.4645 30.0167 36.4645 29.4861 36.371 28.9681L38.8301 28.968Z" fill="#008D93"/>
</svg>
